<svg viewBox="0 0 550 248" xmlns="http://www.w3.org/2000/svg" xmlns:xlink="http://www.w3.org/1999/xlink"><defs><linearGradient id="g"><stop offset=".005" stop-color="#2e3036"/><stop offset=".974" stop-color="#222225"/></linearGradient><linearGradient id="d"><stop offset=".033"/><stop offset=".295" stop-color="#020202"/><stop offset=".449" stop-color="#090a0b"/><stop offset=".576" stop-color="#151619"/><stop offset=".687" stop-color="#26282d"/><stop offset=".726" stop-color="#2e3036"/><stop offset=".729" stop-color="#2e3036"/></linearGradient><linearGradient id="i" gradientUnits="userSpaceOnUse" x1="122.417" x2="129.432" y1="75.667" y2="96.492" gradientTransform="translate(-111.122 -63.576)"><stop offset=".033"/><stop offset=".137" stop-color="#020202"/><stop offset=".198" stop-color="#0b0b0b"/><stop offset=".247" stop-color="#191919"/><stop offset=".292" stop-color="#2d2d2d"/><stop offset=".332" stop-color="#474747"/><stop offset=".369" stop-color="#676767"/><stop offset=".405" stop-color="#8e8d8e"/><stop offset=".438" stop-color="#bab9ba"/><stop offset=".469" stop-color="#ebeaeb"/><stop offset=".48" stop-color="#fffeff"/><stop offset=".828" stop-color="#222225"/></linearGradient><linearGradient id="a"><stop offset="0"/><stop offset=".354" stop-color="#fffeff"/><stop offset=".684" stop-color="#222225"/></linearGradient><linearGradient id="j" gradientUnits="userSpaceOnUse" x1="400.962" x2="395.1" y1="199.886" y2="199.627" gradientTransform="translate(-55.56 -31.788)" xlink:href="#a"/><linearGradient id="b"><stop offset="0"/><stop offset=".354" stop-color="#fffeff"/><stop offset=".885"/></linearGradient><linearGradient id="l" gradientUnits="userSpaceOnUse" x1="441.656" x2="565.581" y1="255.076" y2="178.5" gradientTransform="translate(-55.56 -31.788)" xlink:href="#b"/><linearGradient id="c"><stop offset=".003" stop-color="#2e3036"/><stop offset=".127" stop-color="#35373d"/><stop offset=".23" stop-color="#3e4046"/><stop offset=".354" stop-color="#6d6f78"/><stop offset=".586" stop-color="#222225"/><stop offset=".885"/></linearGradient><linearGradient id="n" gradientUnits="userSpaceOnUse" x1="278.901" x2="224.538" y1="102.61" y2="113.132" gradientTransform="translate(-55.56 -31.788)" xlink:href="#c"/><linearGradient id="k" gradientUnits="userSpaceOnUse" x1="400.949" x2="374.631" y1="120.246" y2="124.925" gradientTransform="translate(-55.56 -31.788)" xlink:href="#c"/><linearGradient id="o" gradientUnits="userSpaceOnUse" x1="309.742" x2="309.318" y1="237.503" y2="245.573" gradientTransform="translate(-55.56 -31.788)"><stop offset=".202" stop-color="#222225"/><stop offset="1" stop-color="#fff"/></linearGradient><linearGradient id="p" gradientUnits="userSpaceOnUse" x1="443.899" x2="426.359" y1="124.762" y2="169.488" gradientTransform="translate(-55.56 -31.788)" xlink:href="#a"/><radialGradient id="m" cx="83.183" cy="153.628" gradientUnits="userSpaceOnUse" r="10.734" gradientTransform="translate(-55.56 -31.788)"><stop offset=".033" stop-color="#e6e6e6"/><stop offset=".413" stop-color="#e4e4e4"/><stop offset=".637" stop-color="#dbdbdb"/><stop offset=".82" stop-color="#cdcdcd"/><stop offset=".831" stop-color="#ccc"/></radialGradient><linearGradient id="q" gradientUnits="userSpaceOnUse" x1="549.254" x2="552.104" y1="154.534" y2="166.371" gradientTransform="translate(-55.56 -31.788)" xlink:href="#d"/><linearGradient id="s" gradientTransform="scale(-7.9595 7.9595) rotate(86.281 -634.456 1578.908)" gradientUnits="userSpaceOnUse" x1="-2152.433" x2="-2151.586" y1="874.636" y2="874.636"><stop offset="0" stop-color="#008bd0"/><stop offset="1" stop-color="#fff"/></linearGradient><clipPath id="t"><path d="M265.003 71.64l-1.345.002c-6.312.012-12.142.11-16.942.335 0 0-5.965.332-14.455.843-16.012.958-41.006 2.541-51.893 3.688 0 0-25.189 3.281-37.729 5.646-2.89.551-5.109 1.042-6.188 1.442 0 0-3.332-.834-7.691-.834-1.344 0-2.783.079-4.256.286 0 0-2.811.213-5.599.213-.904 0-1.812-.023-2.62-.082 0 0-.236-.027-.566-.027-.875 0-2.404.188-1.848 1.539.287.697 1.801 2.562 3.674 4.683 3.137 3.549 7.285 7.83 8.383 8.583 0 0-22.816 17.628-34.294 31.291l-.229.272s-9.721 6.959-15.781 17.133c-1.951 3.278-3.524 6.893-4.273 10.706 0 0-.321 3-.38 6.394-.039 2.222.032 4.606.38 6.434 0 0-4.259 3.71-8.35 9.926-3.897 5.913-7.646 14.101-7.438 23.505.032 1.394 2.936 2.063 3 3.344.172 3.304.449 6.217.787 8.763 1.176 8.915.201 13.99.621 14.899 1.072 2.31 2.15 4.607 3.928 6.484 1.162 1.229 2.54 2.146 4.07 2.146.314 0 .637-.04.967-.124 0 0 .217 2.082 4.273 2.188h5.479s-5.271-18.354 6.018-35.712c.217-.336.439-.671.67-1.003 10.438-15.141 15.713-20.051 28.379-22.221 15.836-2.713 20.535-1.729 22.514-1.495 13.92 1.644 35.751 15.517 31.422 29.302-4.521 14.409 8.225 35.95 8.441 38.146v3.834c23.087.377 46.178.755 69.266 1.134 60.602.992 121.195 1.979 181.794 2.976 5.604.097 11.206.188 16.813.275v-13.3s-1.609-23.382 14.172-40.771c11.855-13.063 26.109-16.812 37.36-16.812 3.728 0 7.114.409 9.986 1.024 11.545 2.484 32.005 13.153 38.728 33.177 0 0 6.434 14.61 3.219 36.682 0 0 .801.087 2.021.087 2.32 0 6.163-.312 8.938-2.134 15.591-1.752 31.18-3.506 46.766-5.26 0 0 1.409-.304 2.335-1.225.785-.782 1.226-2.017.149-3.896 0 0-1.036-1.293-2.978-2.024a7.612 7.612 0 0 0-1.994-.461c-.482-1.993-.975-3.992-1.462-5.988 0 0 2.391-1.324 3.987-3.755.896-1.354 1.406-2.896 1.425-4.521.021-1.657.005-11.674-3.046-21.985-1.645-5.556-4.166-11.189-8.039-15.655a27.974 27.974 0 0 0-1.781-1.867s2.192-6.435.297-11.255c-.387-.975-1.263-2.276-2.534-3.792-5.057-5.983-16.37-15.217-28.154-19.884 0 0-.224-.083-.656-.235-4.335-1.562-29.467-10.471-56.312-17.084-5.544-1.367-11.163-2.64-16.688-3.724h-.317c-2.633 0-20.806-.125-30.951-3.508 0 0-13.008-4.237-24.404-11.982-11.396-7.743-74.094-35.071-82.131-36.974 2.824-.405 5.646-.806 8.468-1.211.591-.084 1.179-.167 1.768-.252 0 0-22.946-4.821-36.979-5.114-10.72-.224-38.14-1.214-60.195-1.215"/></clipPath><clipPath id="u"><path d="M180.591 191.209h48.584v53.912h-48.584z"/></clipPath><linearGradient id="v" gradientTransform="matrix(0 7.9595 7.9595 0 -6623.88 17238.967)" gradientUnits="userSpaceOnUse" x1="-2142.868" x2="-2132.552" y1="857.94" y2="857.94"><stop offset="0" stop-color="#008bd0"/><stop offset="1" stop-color="#fff" stop-opacity=".3"/></linearGradient><linearGradient id="w" gradientUnits="userSpaceOnUse" x1="180.585" x2="274.15" y1="166.951" y2="166.951"><stop offset="0" stop-color="#004494"/><stop offset=".345" stop-color="#024695" stop-opacity=".655"/><stop offset=".545" stop-color="#0b4c98" stop-opacity=".455"/><stop offset=".708" stop-color="#19569e" stop-opacity=".292"/><stop offset=".851" stop-color="#2d65a6" stop-opacity=".149"/><stop offset=".98" stop-color="#4678b1" stop-opacity=".02"/><stop offset="1" stop-color="#4b7bb3" stop-opacity="0"/></linearGradient><linearGradient id="x" gradientUnits="userSpaceOnUse" x1="160.894" x2="185.753" y1="200.103" y2="59.118"><stop offset="0" stop-color="#a5027d" stop-opacity="0"/><stop offset=".616" stop-color="#a5027d" stop-opacity=".9"/></linearGradient><clipPath id="y"><path d="M265.003 71.64l-1.345.002c-6.312.012-12.142.11-16.942.335 0 0-5.965.332-14.455.843-16.012.958-41.006 2.541-51.893 3.688 0 0-25.189 3.281-37.729 5.646-2.89.551-5.109 1.042-6.188 1.442 0 0-3.332-.834-7.691-.834-1.344 0-2.783.079-4.256.286 0 0-2.811.213-5.599.213-.904 0-1.812-.023-2.62-.082 0 0-.236-.027-.566-.027-.875 0-2.404.188-1.848 1.539.287.697 1.801 2.562 3.674 4.683 3.137 3.549 7.285 7.83 8.383 8.583 0 0-22.816 17.628-34.294 31.291l-.229.272s-9.721 6.959-15.781 17.133c-1.951 3.278-3.524 6.893-4.273 10.706 0 0-.321 3-.38 6.394-.039 2.222.032 4.606.38 6.434 0 0-4.259 3.71-8.35 9.926-3.897 5.913-7.646 14.101-7.438 23.505.032 1.394 2.936 2.063 3 3.344.172 3.304.449 6.217.787 8.763 1.176 8.915.201 13.99.621 14.899 1.072 2.31 2.15 4.607 3.928 6.484 1.162 1.229 2.54 2.146 4.07 2.146.314 0 .637-.04.967-.124 0 0 .217 2.082 4.273 2.188h5.479s-5.271-18.354 6.018-35.712c.217-.336.439-.671.67-1.003 10.438-15.141 15.713-20.051 28.379-22.221 15.836-2.713 20.535-1.729 22.514-1.495 13.92 1.644 35.751 15.517 31.422 29.302-4.521 14.409 8.225 35.95 8.441 38.146v3.834c23.087.377 46.178.755 69.266 1.134 60.602.992 121.195 1.979 181.794 2.976 5.604.097 11.206.188 16.813.275v-13.3s-1.609-23.382 14.172-40.771c11.855-13.063 26.109-16.812 37.36-16.812 3.728 0 7.114.409 9.986 1.024 11.545 2.484 32.005 13.153 38.728 33.177 0 0 6.434 14.61 3.219 36.682 0 0 .801.087 2.021.087 2.32 0 6.163-.312 8.938-2.134 15.591-1.752 31.18-3.506 46.766-5.26 0 0 1.409-.304 2.335-1.225.785-.782 1.226-2.017.149-3.896 0 0-1.036-1.293-2.978-2.024a7.612 7.612 0 0 0-1.994-.461c-.482-1.993-.975-3.992-1.462-5.988 0 0 2.391-1.324 3.987-3.755.896-1.354 1.406-2.896 1.425-4.521.021-1.657.005-11.674-3.046-21.985-1.645-5.556-4.166-11.189-8.039-15.655a27.974 27.974 0 0 0-1.781-1.867s2.192-6.435.297-11.255c-.387-.975-1.263-2.276-2.534-3.792-5.057-5.983-16.37-15.217-28.154-19.884 0 0-.224-.083-.656-.235-4.335-1.562-29.467-10.471-56.312-17.084-5.544-1.367-11.163-2.64-16.688-3.724h-.317c-2.633 0-20.806-.125-30.951-3.508 0 0-13.008-4.237-24.404-11.982-11.396-7.743-74.094-35.071-82.131-36.974 2.824-.405 5.646-.806 8.468-1.211.591-.084 1.179-.167 1.768-.252 0 0-22.946-4.821-36.979-5.114-10.72-.224-38.14-1.214-60.195-1.215"/></clipPath><linearGradient id="z" gradientUnits="userSpaceOnUse" x1="265.588" x2="265.149" y1="156.051" y2="167.013"><stop offset="0"/><stop offset=".354" stop-color="#6d6f78"/><stop offset=".586" stop-color="#222225"/><stop offset=".885"/></linearGradient><linearGradient id="e"><stop offset="0" stop-color="#e5e2df"/><stop offset="0" stop-color="#ded9d6"/><stop offset=".063" stop-color="#cfcac9"/><stop offset=".183" stop-color="#a8a4a7"/><stop offset=".264" stop-color="#8b878d"/><stop offset=".522" stop-color="#f3f4f4"/><stop offset=".584" stop-color="#e5e5e6"/><stop offset=".703" stop-color="#c0bec0"/><stop offset=".865" stop-color="#858085"/><stop offset=".876" stop-color="#807b80"/><stop offset="1" stop-color="#d1d3d4"/><stop offset="1" stop-color="#a7a9ac"/></linearGradient><linearGradient id="A" gradientUnits="userSpaceOnUse" x1="248.29" x2="281.694" y1="156.51" y2="156.51" xlink:href="#e"/><clipPath id="B"><path d="M265.003 71.64l-1.345.002c-6.312.012-12.142.11-16.942.335 0 0-5.965.332-14.455.843-16.012.958-41.006 2.541-51.893 3.688 0 0-25.189 3.281-37.729 5.646-2.89.551-5.109 1.042-6.188 1.442 0 0-3.332-.834-7.691-.834-1.344 0-2.783.079-4.256.286 0 0-2.811.213-5.599.213-.904 0-1.812-.023-2.62-.082 0 0-.236-.027-.566-.027-.875 0-2.404.188-1.848 1.539.287.697 1.801 2.562 3.674 4.683 3.137 3.549 7.285 7.83 8.383 8.583 0 0-22.816 17.628-34.294 31.291l-.229.272s-9.721 6.959-15.781 17.133c-1.951 3.278-3.524 6.893-4.273 10.706 0 0-.321 3-.38 6.394-.039 2.222.032 4.606.38 6.434 0 0-4.259 3.71-8.35 9.926-3.897 5.913-7.646 14.101-7.438 23.505.032 1.394 2.936 2.063 3 3.344.172 3.304.449 6.217.787 8.763 1.176 8.915.201 13.99.621 14.899 1.072 2.31 2.15 4.607 3.928 6.484 1.162 1.229 2.54 2.146 4.07 2.146.314 0 .637-.04.967-.124 0 0 .217 2.082 4.273 2.188h5.479s-5.271-18.354 6.018-35.712c.217-.336.439-.671.67-1.003 10.438-15.141 15.713-20.051 28.379-22.221 15.836-2.713 20.535-1.729 22.514-1.495 13.92 1.644 35.751 15.517 31.422 29.302-4.521 14.409 8.225 35.95 8.441 38.146v3.834c23.087.377 46.178.755 69.266 1.134 60.602.992 121.195 1.979 181.794 2.976 5.604.097 11.206.188 16.813.275v-13.3s-1.609-23.382 14.172-40.771c11.855-13.063 26.109-16.812 37.36-16.812 3.728 0 7.114.409 9.986 1.024 11.545 2.484 32.005 13.153 38.728 33.177 0 0 6.434 14.61 3.219 36.682 0 0 .801.087 2.021.087 2.32 0 6.163-.312 8.938-2.134 15.591-1.752 31.18-3.506 46.766-5.26 0 0 1.409-.304 2.335-1.225.785-.782 1.226-2.017.149-3.896 0 0-1.036-1.293-2.978-2.024a7.612 7.612 0 0 0-1.994-.461c-.482-1.993-.975-3.992-1.462-5.988 0 0 2.391-1.324 3.987-3.755.896-1.354 1.406-2.896 1.425-4.521.021-1.657.005-11.674-3.046-21.985-1.645-5.556-4.166-11.189-8.039-15.655a27.974 27.974 0 0 0-1.781-1.867s2.192-6.435.297-11.255c-.387-.975-1.263-2.276-2.534-3.792-5.057-5.983-16.37-15.217-28.154-19.884 0 0-.224-.083-.656-.235-4.335-1.562-29.467-10.471-56.312-17.084-5.544-1.367-11.163-2.64-16.688-3.724h-.317c-2.633 0-20.806-.125-30.951-3.508 0 0-13.008-4.237-24.404-11.982-11.396-7.743-74.094-35.071-82.131-36.974 2.824-.405 5.646-.806 8.468-1.211.591-.084 1.179-.167 1.768-.252 0 0-22.946-4.821-36.979-5.114-10.72-.224-38.14-1.214-60.195-1.215"/></clipPath><linearGradient id="f"><stop offset=".005" stop-color="#1a1a1a"/><stop offset=".544" stop-color="#444343"/><stop offset=".572" stop-color="#464545"/><stop offset=".729" stop-color="#434242"/><stop offset=".831" stop-color="#3b3a3a"/><stop offset=".917" stop-color="#2c2b2b"/><stop offset=".974" stop-color="#1d1d1d"/></linearGradient><radialGradient id="C" cx="125.125" cy="235.979" gradientUnits="userSpaceOnUse" r="44.206" xlink:href="#f"/><radialGradient id="D" cx="125.125" cy="235.979" gradientUnits="userSpaceOnUse" r="35.73" xlink:href="#g"/><linearGradient id="h"><stop offset="0" stop-color="#e5e2df"/><stop offset="0" stop-color="#ded9d6"/><stop offset=".038" stop-color="#cfccc9"/><stop offset=".111" stop-color="#a8a8a8"/><stop offset=".211" stop-color="#6a7072"/><stop offset=".264" stop-color="#465053"/><stop offset=".372" stop-color="#878d8f"/><stop offset=".464" stop-color="#b7babb"/><stop offset=".533" stop-color="#d5d6d6"/><stop offset=".573" stop-color="#e0e0e0"/><stop offset=".632" stop-color="#d6d7d8"/><stop offset=".731" stop-color="#bcbfc2"/><stop offset=".858" stop-color="#92989e"/><stop offset=".876" stop-color="#8b9298"/><stop offset="1" stop-color="#d1d3d4"/><stop offset="1" stop-color="#a7a9ac"/></linearGradient><linearGradient id="r" gradientUnits="userSpaceOnUse" x1="103.775" x2="135.778" y1="212.122" y2="247.924" xlink:href="#h"/><linearGradient id="E" gradientUnits="userSpaceOnUse" x1="126.045" x2="127.58" y1="224.285" y2="228.781" xlink:href="#e"/><linearGradient id="F" gradientUnits="userSpaceOnUse" x1="116.645" x2="119.715" y1="231.8" y2="236.733" xlink:href="#e"/><linearGradient id="G" gradientUnits="userSpaceOnUse" x1="127.097" x2="124.028" y1="241.249" y2="244.099" xlink:href="#e"/><linearGradient id="H" gradientUnits="userSpaceOnUse" x1="132.299" x2="135.041" y1="235.115" y2="238.186" xlink:href="#e"/><linearGradient id="I" gradientUnits="userSpaceOnUse" x1="121.83" x2="129.589" y1="235.687" y2="235.687" xlink:href="#e"/><clipPath id="J"><path d="M265.003 71.64l-1.345.002c-6.312.012-12.142.11-16.942.335 0 0-5.965.332-14.455.843-16.012.958-41.006 2.541-51.893 3.688 0 0-25.189 3.281-37.729 5.646-2.89.551-5.109 1.042-6.188 1.442 0 0-3.332-.834-7.691-.834-1.344 0-2.783.079-4.256.286 0 0-2.811.213-5.599.213-.904 0-1.812-.023-2.62-.082 0 0-.236-.027-.566-.027-.875 0-2.404.188-1.848 1.539.287.697 1.801 2.562 3.674 4.683 3.137 3.549 7.285 7.83 8.383 8.583 0 0-22.816 17.628-34.294 31.291l-.229.272s-9.721 6.959-15.781 17.133c-1.951 3.278-3.524 6.893-4.273 10.706 0 0-.321 3-.38 6.394-.039 2.222.032 4.606.38 6.434 0 0-4.259 3.71-8.35 9.926-3.897 5.913-7.646 14.101-7.438 23.505.032 1.394 2.936 2.063 3 3.344.172 3.304.449 6.217.787 8.763 1.176 8.915.201 13.99.621 14.899 1.072 2.31 2.15 4.607 3.928 6.484 1.162 1.229 2.54 2.146 4.07 2.146.314 0 .637-.04.967-.124 0 0 .217 2.082 4.273 2.188h5.479s-5.271-18.354 6.018-35.712c.217-.336.439-.671.67-1.003 10.438-15.141 15.713-20.051 28.379-22.221 15.836-2.713 20.535-1.729 22.514-1.495 13.92 1.644 35.751 15.517 31.422 29.302-4.521 14.409 8.225 35.95 8.441 38.146v3.834c23.087.377 46.178.755 69.266 1.134 60.602.992 121.195 1.979 181.794 2.976 5.604.097 11.206.188 16.813.275v-13.3s-1.609-23.382 14.172-40.771c11.855-13.063 26.109-16.812 37.36-16.812 3.728 0 7.114.409 9.986 1.024 11.545 2.484 32.005 13.153 38.728 33.177 0 0 6.434 14.61 3.219 36.682 0 0 .801.087 2.021.087 2.32 0 6.163-.312 8.938-2.134 15.591-1.752 31.18-3.506 46.766-5.26 0 0 1.409-.304 2.335-1.225.785-.782 1.226-2.017.149-3.896 0 0-1.036-1.293-2.978-2.024a7.612 7.612 0 0 0-1.994-.461c-.482-1.993-.975-3.992-1.462-5.988 0 0 2.391-1.324 3.987-3.755.896-1.354 1.406-2.896 1.425-4.521.021-1.657.005-11.674-3.046-21.985-1.645-5.556-4.166-11.189-8.039-15.655a27.974 27.974 0 0 0-1.781-1.867s2.192-6.435.297-11.255c-.387-.975-1.263-2.276-2.534-3.792-5.057-5.983-16.37-15.217-28.154-19.884 0 0-.224-.083-.656-.235-4.335-1.562-29.467-10.471-56.312-17.084-5.544-1.367-11.163-2.64-16.688-3.724h-.317c-2.633 0-20.806-.125-30.951-3.508 0 0-13.008-4.237-24.404-11.982-11.396-7.743-74.094-35.071-82.131-36.974 2.824-.405 5.646-.806 8.468-1.211.591-.084 1.179-.167 1.768-.252 0 0-22.946-4.821-36.979-5.114-10.72-.224-38.14-1.214-60.195-1.215"/></clipPath><radialGradient id="K" cx="496.801" cy="235.979" gradientUnits="userSpaceOnUse" r="44.207" xlink:href="#f"/><radialGradient id="L" cx="496.801" cy="235.979" gradientUnits="userSpaceOnUse" r="35.729" xlink:href="#g"/><linearGradient id="M" gradientUnits="userSpaceOnUse" x1="475.447" x2="507.451" y1="212.12" y2="247.923" xlink:href="#h"/><linearGradient id="N" gradientUnits="userSpaceOnUse" x1="497.718" x2="499.253" y1="224.284" y2="228.78" xlink:href="#e"/><linearGradient id="O" gradientUnits="userSpaceOnUse" x1="488.32" x2="491.389" y1="231.799" y2="236.733" xlink:href="#e"/><linearGradient id="P" gradientUnits="userSpaceOnUse" x1="498.776" x2="495.708" y1="241.25" y2="244.099" xlink:href="#e"/><linearGradient id="Q" gradientUnits="userSpaceOnUse" x1="503.973" x2="506.713" y1="235.117" y2="238.187" xlink:href="#e"/><linearGradient id="R" gradientUnits="userSpaceOnUse" x1="493.506" x2="501.265" y1="235.687" y2="235.687" xlink:href="#e"/><radialGradient id="S" cx="50.291" cy="-233.279" gradientTransform="matrix(1 0 0 -1 74.835 2.702)" gradientUnits="userSpaceOnUse" r="44.206" xlink:href="#f"/><radialGradient id="T" cx="50.291" cy="-233.277" gradientTransform="matrix(1 0 0 -1 74.835 2.702)" gradientUnits="userSpaceOnUse" r="35.73" xlink:href="#g"/><linearGradient id="U" gradientTransform="matrix(1 0 0 -1 74.835 2.702)" gradientUnits="userSpaceOnUse" x1="28.939" x2="60.943" y1="-209.418" y2="-245.222" xlink:href="#h"/><linearGradient id="V" gradientTransform="matrix(1 0 0 -1 74.835 2.702)" gradientUnits="userSpaceOnUse" x1="51.21" x2="52.745" y1="-221.584" y2="-226.077" xlink:href="#e"/><linearGradient id="W" gradientTransform="matrix(1 0 0 -1 74.835 2.702)" gradientUnits="userSpaceOnUse" x1="41.811" x2="44.88" y1="-229.1" y2="-234.033" xlink:href="#e"/><linearGradient id="X" gradientTransform="matrix(1 0 0 -1 74.835 2.702)" gradientUnits="userSpaceOnUse" x1="52.267" x2="49.197" y1="-238.547" y2="-241.397" xlink:href="#e"/><linearGradient id="Y" gradientTransform="matrix(1 0 0 -1 74.835 2.702)" gradientUnits="userSpaceOnUse" x1="57.467" x2="60.208" y1="-232.414" y2="-235.485" xlink:href="#e"/><linearGradient id="Z" gradientTransform="matrix(1 0 0 -1 74.835 2.702)" gradientUnits="userSpaceOnUse" x1="46.996" x2="54.755" y1="-232.986" y2="-232.986" xlink:href="#e"/><radialGradient id="aa" cx="421.967" cy="-233.279" gradientTransform="matrix(1 0 0 -1 74.835 2.702)" gradientUnits="userSpaceOnUse" r="44.207" xlink:href="#f"/><radialGradient id="ab" cx="421.966" cy="-233.277" gradientTransform="matrix(1 0 0 -1 74.835 2.702)" gradientUnits="userSpaceOnUse" r="35.73" xlink:href="#g"/><linearGradient id="ac" gradientTransform="matrix(1 0 0 -1 74.835 2.702)" gradientUnits="userSpaceOnUse" x1="400.613" x2="432.616" y1="-209.416" y2="-245.22" xlink:href="#h"/><linearGradient id="ad" gradientTransform="matrix(1 0 0 -1 74.835 2.702)" gradientUnits="userSpaceOnUse" x1="422.884" x2="424.419" y1="-221.583" y2="-226.079" xlink:href="#e"/><linearGradient id="ae" gradientTransform="matrix(1 0 0 -1 74.835 2.702)" gradientUnits="userSpaceOnUse" x1="413.487" x2="416.553" y1="-229.098" y2="-234.027" xlink:href="#e"/><linearGradient id="af" gradientTransform="matrix(1 0 0 -1 74.835 2.702)" gradientUnits="userSpaceOnUse" x1="423.941" x2="420.871" y1="-238.549" y2="-241.399" xlink:href="#e"/><linearGradient id="ag" gradientTransform="matrix(1 0 0 -1 74.835 2.702)" gradientUnits="userSpaceOnUse" x1="429.136" x2="431.878" y1="-232.414" y2="-235.485" xlink:href="#e"/><linearGradient id="ah" gradientTransform="matrix(1 0 0 -1 74.835 2.702)" gradientUnits="userSpaceOnUse" x1="418.672" x2="426.43" y1="-232.986" y2="-232.986" xlink:href="#e"/><radialGradient id="ai" cx="100.18" cy="67.19" gradientTransform="matrix(1 0 0 -1 24.945 303.17)" gradientUnits="userSpaceOnUse" r="44.206" xlink:href="#f"/><radialGradient id="aj" cx="100.181" cy="67.192" gradientTransform="matrix(1 0 0 -1 24.945 303.17)" gradientUnits="userSpaceOnUse" r="35.73" xlink:href="#g"/><linearGradient id="ak" gradientTransform="matrix(1 0 0 -1 24.945 303.17)" gradientUnits="userSpaceOnUse" x1="78.827" x2="110.832" y1="91.051" y2="55.247" xlink:href="#h"/><linearGradient id="al" gradientTransform="matrix(1 0 0 -1 24.945 303.17)" gradientUnits="userSpaceOnUse" x1="101.101" x2="102.636" y1="78.886" y2="74.392" xlink:href="#e"/><linearGradient id="am" gradientTransform="matrix(1 0 0 -1 24.945 303.17)" gradientUnits="userSpaceOnUse" x1="91.7" x2="94.768" y1="71.368" y2="66.436" xlink:href="#e"/><linearGradient id="an" gradientTransform="matrix(1 0 0 -1 24.945 303.17)" gradientUnits="userSpaceOnUse" x1="102.154" x2="99.086" y1="61.921" y2="59.072" xlink:href="#e"/><linearGradient id="ao" gradientTransform="matrix(1 0 0 -1 24.945 303.17)" gradientUnits="userSpaceOnUse" x1="107.355" x2="110.095" y1="68.053" y2="64.984" xlink:href="#e"/><linearGradient id="ap" gradientTransform="matrix(1 0 0 -1 24.945 303.17)" gradientUnits="userSpaceOnUse" x1="96.885" x2="104.644" y1="67.483" y2="67.483" xlink:href="#e"/><radialGradient id="aq" cx="471.857" cy="67.19" gradientTransform="matrix(1 0 0 -1 24.945 303.17)" gradientUnits="userSpaceOnUse" r="44.206" xlink:href="#f"/><radialGradient id="ar" cx="471.856" cy="67.192" gradientTransform="matrix(1 0 0 -1 24.945 303.17)" gradientUnits="userSpaceOnUse" r="35.729" xlink:href="#g"/><linearGradient id="as" gradientTransform="matrix(1 0 0 -1 24.945 303.17)" gradientUnits="userSpaceOnUse" x1="450.503" x2="482.507" y1="91.052" y2="55.248" xlink:href="#h"/><linearGradient id="at" gradientTransform="matrix(1 0 0 -1 24.945 303.17)" gradientUnits="userSpaceOnUse" x1="472.774" x2="474.308" y1="78.886" y2="74.391" xlink:href="#e"/><linearGradient id="au" gradientTransform="matrix(1 0 0 -1 24.945 303.17)" gradientUnits="userSpaceOnUse" x1="463.375" x2="466.443" y1="71.371" y2="66.441" xlink:href="#e"/><linearGradient id="av" gradientTransform="matrix(1 0 0 -1 24.945 303.17)" gradientUnits="userSpaceOnUse" x1="473.83" x2="470.762" y1="61.92" y2="59.07" xlink:href="#e"/><linearGradient id="aw" gradientTransform="matrix(1 0 0 -1 24.945 303.17)" gradientUnits="userSpaceOnUse" x1="479.028" x2="481.769" y1="68.053" y2="64.983" xlink:href="#e"/><linearGradient id="ax" gradientTransform="matrix(1 0 0 -1 24.945 303.17)" gradientUnits="userSpaceOnUse" x1="468.561" x2="476.321" y1="67.483" y2="67.483" xlink:href="#e"/><radialGradient id="ay" cx="125.125" cy="235.98" gradientUnits="userSpaceOnUse" r="44.206" gradientTransform="translate(-56.146 -32.164)" xlink:href="#f"/><radialGradient id="az" cx="125.126" cy="235.98" gradientUnits="userSpaceOnUse" r="35.73" gradientTransform="translate(-56.146 -32.164)" xlink:href="#g"/><linearGradient id="aA" gradientUnits="userSpaceOnUse" x1="103.773" x2="135.777" y1="212.119" y2="247.923" gradientTransform="translate(-112.293 -64.327)" xlink:href="#h"/><linearGradient id="aB" gradientUnits="userSpaceOnUse" x1="126.045" x2="127.58" y1="224.284" y2="228.779" gradientTransform="translate(-56.146 -32.164)" xlink:href="#e"/><linearGradient id="aC" gradientUnits="userSpaceOnUse" x1="116.646" x2="119.715" y1="231.8" y2="236.733" gradientTransform="translate(-56.146 -32.164)" xlink:href="#e"/><linearGradient id="aD" gradientUnits="userSpaceOnUse" x1="127.099" x2="124.031" y1="241.251" y2="244.1" gradientTransform="translate(-56.146 -32.164)" xlink:href="#e"/><linearGradient id="aE" gradientUnits="userSpaceOnUse" x1="132.3" x2="135.041" y1="235.117" y2="238.187" gradientTransform="translate(-56.146 -32.164)" xlink:href="#e"/><linearGradient id="aF" gradientUnits="userSpaceOnUse" x1="121.83" x2="129.589" y1="235.688" y2="235.688" gradientTransform="translate(-56.146 -32.164)" xlink:href="#e"/><radialGradient id="aG" cx="496.801" cy="235.98" gradientUnits="userSpaceOnUse" r="44.207" gradientTransform="translate(-56.484 -32.208)" xlink:href="#f"/><radialGradient id="aH" cx="125.126" cy="235.98" gradientUnits="userSpaceOnUse" r="35.73" gradientTransform="translate(314.826 -31.208)" xlink:href="#g"/><linearGradient id="aI" gradientUnits="userSpaceOnUse" x1="103.773" x2="135.777" y1="212.119" y2="247.923" gradientTransform="translate(629.652 -62.415)" xlink:href="#h"/><linearGradient id="aJ" gradientUnits="userSpaceOnUse" x1="126.045" x2="127.58" y1="224.284" y2="228.779" gradientTransform="translate(314.826 -31.208)" xlink:href="#e"/><linearGradient id="aK" gradientUnits="userSpaceOnUse" x1="116.646" x2="119.715" y1="231.8" y2="236.733" gradientTransform="translate(314.826 -31.208)" xlink:href="#e"/><linearGradient id="aL" gradientUnits="userSpaceOnUse" x1="127.099" x2="124.031" y1="241.251" y2="244.1" gradientTransform="translate(314.826 -31.208)" xlink:href="#e"/><linearGradient id="aM" gradientUnits="userSpaceOnUse" x1="132.3" x2="135.041" y1="235.117" y2="238.187" gradientTransform="translate(314.826 -31.208)" xlink:href="#e"/><linearGradient id="aN" gradientUnits="userSpaceOnUse" x1="121.83" x2="129.589" y1="235.688" y2="235.688" gradientTransform="translate(314.826 -31.208)" xlink:href="#e"/></defs><path d="M386.495 224.07l104.953.088s16.29-70.149-51.527-74.29c.002-.002-73.922 1.979-53.426 74.203z" fill="#17181c"/><path d="M386.495 144.711h106.668v79.447H386.495V144.71zm-370.823 5.595H122.34l-.418 58.552H18.966l-3.294-58.552z" fill="#232327"/><path d="M23.129 209.194h100.945s.042-57.54-48.643-60.607c0 0-60.522-2.381-56.143 57.773z" fill="url(#c)" transform="scale(.995 .9984)"/><path d="M425.121 100.028s.475-2.922 1.896-2.721c0 0 2.635.202 2.521 2.721z" fill="url(#e)" transform="scale(.995 .9984)"/><path d="M459.355 106.387s.546-1.974 1.529-1.754c0 0 1.854.328 1.582 2.63z" fill="url(#f)" transform="scale(.995 .9984)"/><path d="M208.416 39.456h-1.353c-6.28.016-12.082.11-16.858.333 0 0-5.935.333-14.38.847-15.935.956-40.802 2.533-51.636 3.682 0 0-25.064 3.275-37.54 5.637-2.876.546-5.079 1.04-6.157 1.436 0 0-3.315-.833-7.654-.833-1.336 0-2.768.079-4.232.286 0 0-2.798.211-5.576.211-.897 0-1.802-.02-2.598-.082 0 0-.238-.026-.567-.026-.873 0-2.387.188-1.835 1.536.286.696 1.79 2.558 3.656 4.676 3.12 3.544 7.249 7.818 8.341 8.57 0 0-22.701 17.6-34.125 31.24-.076.092-.152.185-.228.273 0 0-9.676 6.948-15.706 17.11-1.941 3.267-3.506 6.877-4.25 10.683 0 0-.318 2.997-.379 6.384-.038 2.218.031 4.6.38 6.425 0 0-4.24 3.703-8.31 9.91-3.877 5.901-7.609 14.077-7.4 23.468.03 1.39 2.92 2.058 2.983 3.337a113.4 113.4 0 0 0 .784 8.748c1.17 8.9.2 13.969.617 14.874 1.07 2.309 2.14 4.602 3.909 6.475 1.158 1.227 2.53 2.143 4.05 2.143.315 0 .636-.04.964-.123 0 0 .216 2.077 4.25 2.184h5.451s-5.245-18.324 5.987-35.655c.217-.336.438-.67.668-1.002 10.385-15.117 25.351-19.84 38.14-19.84 2.116 0 4.166.129 6.137.362 13.851 1.643 30.645 11.709 37.624 25.057 6.985 13.352 8.183 35.89 8.398 38.085v3.829c22.972.375 45.947.754 68.92 1.13 60.3.991 120.59 1.98 180.886 2.975 5.576.093 11.152.184 16.73.27v-13.278s-1.6-23.343 14.1-40.705c11.797-13.041 25.98-16.785 37.173-16.785 3.71 0 7.082.408 9.937 1.025 11.488 2.476 31.846 13.128 38.536 33.12 0 0 6.4 14.587 3.2 36.623 0 0 .797.087 2.012.087 2.308 0 6.133-.312 8.895-2.131l46.533-5.25s1.4-.301 2.322-1.225c.78-.777 1.219-2.012.147-3.89 0 0-1.03-1.29-2.96-2.02a7.481 7.481 0 0 0-1.986-.46c-.48-1.99-.971-3.985-1.456-5.975 0 0 2.38-1.326 3.97-3.753.891-1.351 1.396-2.891 1.416-4.513.021-1.656.005-11.657-3.03-21.951-1.636-5.547-4.147-11.17-8-15.625a27.195 27.195 0 0 0-1.767-1.869s2.177-6.426.29-11.234c-.385-.975-1.257-2.275-2.521-3.786-5.03-5.975-16.289-15.195-28.013-19.854 0 0-.222-.083-.653-.234-4.312-1.56-29.32-10.455-56.031-17.057-5.518-1.365-11.109-2.636-16.605-3.719l-.312.001c-2.606 0-20.697-.125-30.799-3.502 0 0-12.943-4.23-24.283-11.96-11.34-7.735-73.724-35.019-81.721-36.919 2.81-.4 5.618-.805 8.426-1.209.588-.084 1.173-.166 1.759-.251 0 0-22.832-4.815-36.795-5.106-10.663-.22-37.931-1.21-59.875-1.21" fill="#e6e6e6"/><path d="M64.946 60.496c2.373 2.534 4.652 4.808 5.422 5.336m10.523-14.357s-5.699-1.425-11.947-.548c0 0-4.937.374-8.221.13 0 0-3.181-.349-2.412 1.513.432 1.046 3.607 4.701 6.635 7.93 1.662-4.497 15.945-9.025 15.945-9.025z" fill="url(#i)" opacity=".3" transform="scale(.995 .9984)"/><path d="M64.946 60.496c2.373 2.534 4.652 4.808 5.422 5.336m10.523-14.357s-5.699-1.425-11.947-.548c0 0-4.937.374-8.221.13 0 0-3.181-.349-2.412 1.513.432 1.046 3.607 4.701 6.635 7.93 1.662-4.497 15.945-9.025 15.945-9.025z" fill="url(#i)" opacity=".3" transform="scale(.995 .9984)"/><path d="M340.793 164.611c2.398 2.986 4.368 5.669 4.683 6.771" fill="url(#j)" opacity=".2" transform="scale(.995 .9984)"/><path d="M305.075 45.775s25.881 8.757 56.561 23.492C392.318 84 419.655 99.177 423 100.343c0 0-15.27 1.945-39.26-10.699l-47.873-24.757-43.155-17.653 7.83-2.359z" fill="#1a1a1a"/><path d="M305.075 45.775s25.881 8.757 56.561 23.492C392.318 84 419.655 99.177 423 100.343c0 0-15.27 1.945-39.26-10.699l-47.873-24.757-43.155-17.653 7.83-2.359z" fill="#cbccc9" opacity=".2"/><path d="M137.708 43.88s-4.51-2.046-5.53-2.92L102.225 2.587s-1.89-3.21-2.617-2.479c0 0-.26 1.744 2.035 3.208l26.755 35.46s2.762 2.768 1.89 5.685z" fill="#1a1a1a"/><path d="M529.91 183.033c-6.542-2.629-15.27 12.47-15.27 12.47-3.923 6.678-2.178 10.837-2.178 10.837 1.306 5.36 5.89 5.69 5.89 5.69 25.628 1.526 26.063-2.85 26.063-2.85l-1.457-5.98s1.805-1.007 3.33-2.871c-.099-11.581-9.837-14.668-16.377-17.296z"/><path d="M517.221 195.822c-3.942 6.688-2.188 10.854-2.188 10.854 1.312 5.368 5.919 5.698 5.919 5.698 25.757 1.529 26.194-2.854 26.194-2.854l-1.464-5.989s-1.275-10.34-12.564-15.602c0 0-6.188-2.41-10.633 2.083z" fill="url(#k)" transform="scale(.995 .9984)"/><path d="M32.61 129.961c7.419-.983 11.78-1.643 12.652-5.802.871-4.159-10.58-.98-12.54-.876-1.966.11-.547-2.73-.547-2.73 3.923-7.77 16.687-4.817 19.088-5.586 2.396-.767.107-7.332-3.379-10.286-3.485-2.954-10.36-.987-10.36-.987-16.795 5.803-21.408 19.582-21.408 19.582a27.761 27.761 0 0 0-.404 1.758s-.872 8.212 0 12.803c.759-2.077 9.485-6.89 16.899-7.876zm365.121-16.742s-19.087-2.298-24.316-3.062c-5.235-.768-8.069 1.424-8.069 1.424l-5.888 3.83c-2.84 3.066-36.424 0-36.424 0l-79.39-7.22-54.64-4.267c-10.252-.547-47.44-3.723-63.035-7.005-15.6-3.284-23.776-21.34-24.866-26.264-1.092-4.925 4.581-7.66 11.236-10.396 6.651-2.734 34.132-9.63 54.525-11.818 20.396-2.188 53.766-2.844 58.235-2.626 4.472.218 33.696-1.644 61.947 5.363 28.246 7.002 64.994 26.7 64.994 26.7 17.232 8.093 42.1 24.948 42.1 24.948 6.54 4.051 6.655 7.171 6.655 7.171-.227 3.336-3.064 3.222-3.064 3.222z" fill="#1a1a1a"/><path d="M377.95 209.523s-.033-.785-.099-2.258c-.005-.735-.013-1.646-.017-2.714.021-1.068.091-2.3.176-3.678.246-2.75.688-6.083 1.588-9.836a59.715 59.715 0 0 1 4.361-12.206c2.082-4.282 4.767-8.761 8.312-12.943 1.721-2.137 3.71-4.141 5.789-6.132a67.774 67.774 0 0 1 6.885-5.52c4.938-3.396 10.508-6.27 16.516-8.199a64.544 64.544 0 0 1 18.8-3.127c.413-.013.771-.029 1.229-.021l1.177.034c.792.031 1.559.021 2.368.088l2.417.188c.804.062 1.589.192 2.383.283 3.162.431 6.285 1.066 9.312 1.972 1.521.398 2.994.958 4.478 1.462 1.448.586 2.9 1.142 4.292 1.812 1.417.614 2.758 1.368 4.111 2.062 1.311.774 2.642 1.499 3.881 2.346 5.06 3.229 9.394 7.151 13.047 11.229a64.294 64.294 0 0 1 8.713 12.686 61.634 61.634 0 0 1 4.731 12.07c1.047 3.716 1.561 7.046 1.878 9.779.064.688.137 1.336.195 1.945.057.612.062 1.188.094 1.724.053 1.069.09 1.979.065 2.721l-.015 2.258-.13-2.253c-.024-.736-.119-1.644-.239-2.697-.095-1.061-.271-2.273-.484-3.624-.438-2.698-1.104-5.967-2.308-9.569a67.396 67.396 0 0 0-5.121-11.636c-2.298-4.049-5.251-8.163-8.84-12.082-3.646-3.868-7.927-7.539-12.837-10.596-1.205-.796-2.499-1.477-3.771-2.204-1.312-.648-2.612-1.354-3.983-1.927a60.558 60.558 0 0 0-8.458-3.065c-2.907-.853-5.912-1.451-8.948-1.845-.762-.085-1.523-.212-2.281-.263l-2.271-.174c-.758-.062-1.562-.048-2.344-.071l-1.176-.027c-.325-.009-.754.019-1.124.021a61.917 61.917 0 0 0-18.06 2.909c-2.896.904-5.673 2.066-8.361 3.328-2.686 1.277-5.213 2.786-7.63 4.371-2.4 1.614-4.629 3.386-6.738 5.205-2.057 1.878-4.025 3.771-5.75 5.799-.9.979-1.675 2.039-2.502 3.031-.748 1.055-1.543 2.051-2.227 3.1-.697 1.043-1.391 2.065-1.985 3.115-.64 1.029-1.202 2.074-1.743 3.105-2.152 4.125-3.705 8.136-4.766 11.777-1.062 3.649-1.65 6.93-2.021 9.64a240.67 240.67 0 0 0-.372 3.637c-.062 1.066-.109 1.974-.15 2.708a556.656 556.656 0 0 0-.047 2.262z" fill="url(#l)" opacity=".4" transform="scale(.995 .9984)"/><path d="M13.301 198.709s-.008-.7-.018-2.02c-.022-.653.004-1.469.049-2.427.025-.477.035-.991.072-1.541.056-.544.113-1.125.174-1.739.266-2.445.722-5.425 1.639-8.751a55.271 55.271 0 0 1 4.165-10.812c1.927-3.809 4.499-7.692 7.706-11.403 1.619-1.835 3.367-3.661 5.312-5.358 1.908-1.729 4.021-3.319 6.256-4.806 4.467-2.969 9.511-5.427 14.914-7.062 2.697-.844 5.488-1.43 8.309-1.879 2.847-.428 5.662-.61 8.602-.652 2.756.039 5.722.229 8.522.647 2.82.454 5.614 1.038 8.312 1.876 5.403 1.643 10.446 4.103 14.917 7.066 2.229 1.485 4.346 3.074 6.259 4.808 1.944 1.692 3.688 3.521 5.312 5.357 3.205 3.711 5.782 7.597 7.705 11.401a55.035 55.035 0 0 1 4.164 10.813c.916 3.328 1.373 6.308 1.643 8.753.061.614.113 1.195.173 1.739.038.55.048 1.062.069 1.539.048.955.068 1.766.053 2.429-.017 1.315-.021 2.02-.021 2.02l-.124-2.016c-.021-.652-.105-1.462-.221-2.402-.053-.476-.111-.98-.174-1.521l-.268-1.717c-.391-2.411-.992-5.322-2.065-8.542a60.396 60.396 0 0 0-4.562-10.383c-2.016-3.63-4.654-7.296-7.838-10.81-1.612-1.729-3.347-3.444-5.266-5.023-.938-.819-1.947-1.562-2.945-2.34-.506-.383-1.035-.731-1.558-1.104a24.59 24.59 0 0 0-1.604-1.062c-4.33-2.802-9.219-5.016-14.385-6.574-2.583-.788-5.252-1.332-7.951-1.751-2.726-.396-5.367-.547-8.219-.582-2.675.028-5.465.188-8.152.579-2.693.421-5.37.963-7.947 1.754-5.171 1.557-10.061 3.771-14.391 6.565a56.015 56.015 0 0 0-6.104 4.51c-1.917 1.58-3.648 3.295-5.268 5.024-3.18 3.515-5.82 7.182-7.84 10.811a60.287 60.287 0 0 0-4.556 10.385c-1.073 3.22-1.679 6.131-2.069 8.542l-.264 1.717c-.062.538-.12 1.046-.172 1.521-.112.941-.198 1.75-.226 2.406a623.245 623.245 0 0 1-.119 2.015z" fill="url(#m)" opacity=".4" transform="scale(.995 .9984)"/><path d="M345.606 80.61l24.318 13.022 3.27 12.257s-8.512-2.055-14.503 4.377c0 0-2.795 5.033-22.826 3.062l-83.393-6.784-47.988-3.722-73.07-6.892s-9.377-.11-19.847-10.178c0 0-8.289-10.066-7.962-16.85 0 0-.653-5.36 17.124-8.425 0 0 37.188-8.21 60.307-10.397 0 0 56.488-1.093 71.869 0 15.377 1.099 49.724 7.77 70.719 18.935z" fill="#fff" opacity=".1"/><path d="M181.461 50.207l8.508 51.321 15.541 1.463-11.834-53.025z" fill="url(#n)" transform="scale(.995 .9984)"/><path d="M324.178 68.568l9.315 44.614 4.057.328-8.274-42.271z" fill="url(#k)" transform="scale(.995 .9984)"/><path d="M70.017 65.727s-22.42 17.376-33.906 30.982c0 0 13.04-3.516 23.22-14.165l14.25-13.277z" fill="#1a1a1a"/><path d="M119.571 207.811s22.917-1.377 36.654 3.446l203.424 5.992s22.941-1.706 28.785-.243v-2.614l-269.113-8.468z" fill="url(#o)" opacity=".5" transform="scale(.995 .9984)"/><path d="M191.038 101.628v2.542s-2.514 3.936-3.977 5.543c0 0-5.992 7.024-6.285 8.771 0 0-.559 2.155-.57 3.637 0 0 1.301 22.309 1.594 24.312 0 0 4.096 24.946 7.161 35.761 0 0 2.743 16.392 11.528 20.606 0 0 4.562 2.395 13.021 3.508l52.47 1.459 102.729 3.07s5.992-10.522 8.477-21.63c0 0 7.161-20.802 5.994-50.88 0 0-1.463-12.69-1.313-15.762 0 0 .804-9.465-.108-11.383l-.623-1.625s-.875-3.065-2.045-6.137c0 0-3.361-8.362-4.02-11.487M28.469 131.098s2.885 11.128 9.021 20.336m36.46-82.056s6.941-5.079 7.598-10.015l-.652-7.892m389.977 112.922l6.532-7.481 1.358-1.818 9.196-11.66m-68.392-42.821l39.019 16.186" fill="none" opacity=".4" stroke="#000" stroke-miterlimit="10" stroke-width=".622" transform="scale(.995 .9984)"/><path d="M322.56 74.518l4.76 18.385-5.816 14.59s-3.2.876-3.2 3.058L237.6 104.28s-.58-6.092-2.177-7.132c0 0-.291-2.644 1.306-4.614 0 0 1.305-11.744-2.039-15.392 0 0-3.633-5.754-7.705-4.483 0 0-2.035-2.666-1.016-5.878 1.016-3.208 4.944-4.523 10.615-4.376 5.671.15 62.17-.578 85.975 12.114zm19.592 8.462l5.825 29.803s9.728-.617 13.51-8.057c0 0 2.763-3.323 0-6.842.004-.004-12.5-11.108-19.335-14.904z" fill="#151418" opacity=".6"/><path d="M334.3 89.693s-4.508-.44-7.418 1.31c0 0-7.853 5.396-7.705 7.147.145 1.75-.29 9.485 2.618 12.112 2.907 2.626 24.865 6.274 29.082.582 0 0 3.78-7.877 0-12.402-3.782-4.519-16.578-8.749-16.578-8.749z" fill="#121302"/><path d="M377.838 95.826s7.646 10.523 5.469 10.674c0 0-7.402-.819-16.936 1.823 0 0 20.021-.511 26.453 1.534 0 0 10.812 1.169 1.312-4.822-9.499-5.992-16.298-9.209-16.298-9.209z" fill="url(#p)" opacity=".2" transform="scale(.995 .9984)"/><path d="M42.646 106.32c0 .818-4.461 1.768-8.608 3.816-2.403 1.187-4.082 2.525-5.71 4.227-4.44 4.64-4.311 6.489-5.716 5.593-.826-.526.954-4.018 3.86-7.126 2.038-2.18 4.808-4.082 6.861-5.016 4.981-2.266 9.313-2.788 9.313-1.495z" fill="#ff0e0e" opacity=".4"/><path d="M44.384 109.767c-.397.762-3.315.042-7.684 2.03-2.438 1.11-3.906 1.679-5.55 3.367-4.006 4.115-4.31 6.489-5.715 5.593-.826-.526.954-4.019 3.86-7.127 2.038-2.179 5.824-4.159 8.008-4.723 5.343-1.38 7.677-.286 7.08.86z" fill="#ff0e0e" opacity=".4"/><path d="M45.99 112.26c-.397.762-2.381-.225-7.085 1.197-2.564.775-4.261 1.463-5.905 3.152-4.006 4.115-4.868 5.96-6.273 5.064-.825-.527 2.157-3.87 5.216-6.825 2.258-2.181 5.837-3.382 8.055-3.792 5.491-1.017 6.588.058 5.992 1.204zm-17.998 11.035c.623.975 1.943 6.171-2.76 7.593-2.564.774-6.266 2.88-7.49 2.427-.919-.339-2.446-2.994-1.407-7.321.657-2.738 1.562-3.454 3.808-3.652 5.089-.448 7.155-.135 7.849.953z" fill="#ff0e0e" opacity=".4"/><path d="M16.333 126.663s-1.312 5.479 0 8.326c0 0 9.252-6.568 17.319-6.571 0 0 8.759-1.324 9.207-3.729 0 0-7.812 1.101-9.88.876-2.068-.216-14.233-1.642-16.646 1.098z" fill="url(#m)" opacity=".7" transform="scale(.995 .9984)"/><path d="M456.72 116.03l4.164 6.249s.548.988 4.274 2.741c3.729 1.755 16.108 8.548 16.108 8.548s8.879 4.275 6.688 9.866c0 0 41.65 14.795 48.773 11.508 0 0-1.428-12.604-14.905-18.415 0 0-3.729-1.673-8.001-4.507 0 0-7.895-5.136-15.346-7.438 0 0-13.369-5.812-19.511-4.276z" fill="url(#q)" transform="scale(.995 .9984)"/><path d="M173.622 68.458l1.964 21.19s.435 5.957-5.452 5.738c-5.888-.223-16.795-6.263-12.213-22.723z" fill="#151418" opacity=".6"/><path d="M518.938 190.752s-.15 5.852-5.167 10.556c0 0 7.235-2.517 9.676 0l12.833-3.767s-7.236-7.502-9.422-11.333c0 0-4.28-.762-7.92 4.544z" fill="#7f8185" opacity=".8"/><path d="M523.585 200.871s2.946-7.114 8.617-5.582c5.67 1.533 8.287 7.988 8.613 9.848.328 1.861-.326 3.61-3.054 4.049-2.726.439-18.434 3.941-14.176-8.315z"/><path d="M522.86 204.81s16.832 3.722 18.794 4.015c0 0 .88-.516-.76-1.099-1.64-.584-17.678-5.666-17.678-5.666s-1.119 1.802-.356 2.75z" fill="#7f8185" opacity=".8"/><path d="M327.794 95.234s4.075-2.19 6.708-.673c2.635 1.512 10.531 5.53 10.531 5.53s1.436 1.512 0 1.992c-1.436.481-2.633.599 0 1.56 2.634.96 2.476 3.963.64 4.202-1.836.241-16.812-1.323-20.272-2.866-3.463-1.544-1.917-6.01-1.917-6.01z" fill="#6d6f87" opacity=".4"/><path clip-path="url(#r)" d="M241.786 147.639l-.285 4.394-3.961-.258.284-4.394z" fill="url(#s)" transform="scale(.995 .9984)"/><path d="M236.636 147.145l7.593.496.258-3.953-5.334-.348zm7.337 4.451l2.226.145-.071 1.084c.592-.622 1.548-1.245 2.99-1.146 2.539.167 4.044 2.225 3.825 5.65-.211 3.254-2.258 5.294-4.926 5.12-1.337-.092-2.065-.624-2.409-.972l-.337 5.214-2.263-.147zm6.572 5.595c.14-2.1-.53-3.58-2.163-3.682-1.21-.079-2.074.765-2.328 1.086l-.33 5.084c.38.388.967.872 2.024.94 1.654.104 2.66-1.28 2.797-3.428m4.725-4.887l2.27.146-.097 1.487c.47-.694 1.405-1.658 2.757-1.57.7.045 1.054.22 1.234.337l-.683 1.982c-.144-.094-.41-.238-.983-.276-1.376-.09-2.252 1.282-2.466 1.652l-.433 6.677-2.269-.147zm6.576 5.616c.165-2.528 1.727-5.332 5.267-5.102 3.517.23 4.881 3.16 4.718 5.688-.163 2.508-1.86 5.34-5.375 5.112-3.536-.23-4.773-3.166-4.61-5.698m7.585.494c.132-2.039-.628-3.715-2.476-3.832-1.82-.12-2.593 1.39-2.73 3.429-.132 2.042.55 3.706 2.375 3.826 1.838.12 2.699-1.36 2.83-3.423m5.636-3.772l-1.757-.115.058-.892 1.757.113.11-1.702c.149-2.316 1.423-3.622 3.647-3.477.763.051 1.262.233 1.526.378l-.357.96c-.226-.145-.681-.322-1.272-.357-1.52-.103-2.344.825-2.467 2.653l-.104 1.618 2.628.17-.062.894-2.622-.172-.6 9.246-1.081-.072zm4.635 4.506c.165-2.55 1.703-5.22 4.876-5.014 3.175.208 4.46 3.045 4.294 5.574-.165 2.553-1.782 5.237-4.96 5.031-3.172-.212-4.375-3.04-4.21-5.591m8.011.522c.145-2.273-.927-4.436-3.234-4.586-2.293-.15-3.461 1.819-3.607 4.097-.147 2.296.836 4.45 3.128 4.6 2.31.15 3.565-1.813 3.713-4.11m3.388 2.313l.464-7.167 1.098.072-.442 6.927c-.104 1.485.37 2.475 1.918 2.578 1.502.1 2.84-1.24 3.222-1.815l.476-7.354 1.102.072-.53 8.184c-.053.808-.012 1.57.061 1.965l-1.122-.073a12.56 12.56 0 0 1-.042-1.667c-.537.73-1.751 1.783-3.465 1.672-2.127-.134-2.858-1.566-2.74-3.394m11.541-6.44l1.102.068-.117 1.767c.434-.719 1.425-1.915 2.841-1.821.469.03.801.157.966.232l-.346 1.02c-.17-.074-.394-.177-.812-.204-1.402-.092-2.42 1.515-2.732 2.087l-.459 7.054-1.098-.072zm5.585 5.442c.207-3.213 2.178-5.177 4.788-5.005 1.507.102 2.423.734 2.938 1.261l-.621.77c-.544-.526-1.279-1.003-2.402-1.076-2.245-.145-3.383 1.744-3.54 4.083-.145 2.258.71 4.467 2.955 4.61 1.169.075 2.177-.37 2.645-.746l.435.86c-.583.452-1.677.934-3.205.833-2.895-.185-4.17-2.867-3.993-5.59m8.73.487c.187-2.871 1.987-5.099 4.681-4.927 2.587.169 3.874 2.345 3.469 5.22l-6.972-.453-.02.234c-.128 2.32.71 4.505 3.13 4.663 1.292.084 2.406-.378 2.985-.765l.41.895c-.667.43-1.869.923-3.503.815-3.09-.195-4.369-2.771-4.18-5.682m7.107-.69c.08-1.532-.602-3.159-2.532-3.283-1.762-.114-2.863 1.178-3.273 2.906z" fill="#004494"/><path d="M237.377 137.119l-6.427 9.655 4.42.288 6.421-9.654z" fill="#a5027d"/><path d="M460.947 120.22l12.536 2.67s7.673.363 11.455.986c8.225 1.354 11.573 4.186 16.652 6.716 7.008 3.49 14.481 6.33 21.564 9.83 8.682 4.29 8.664 9.445 10.653 14.009.729 1.671-3.599.62-5.417.65-5.533.095-25.899-5.387-42.115-11.518-1.844-.697-.65-4.362-2.059-5.743-5.557-5.452-15.693-7.759-21.05-12.134-1.52-1.242-2.22-5.466-2.22-5.466z" fill="#8a8a8a"/><g clip-path="url(#t)" transform="matrix(.995 0 0 .9984 -55.283 -31.737)"><path clip-path="url(#u)" d="M180.591 191.22h48.584v53.896h-48.584z" fill="url(#v)"/><path d="M180.585 191.225h93.565v-48.546h-65.687z" fill="url(#w)"/><path d="M181.681 68l-71.163 123.22h54.471L236.13 68z" fill="url(#x)"/><g clip-path="url(#y)"><path d="M258.479 150.706s4.968-1.74 8.479-.434c3.508 1.312 13.371 5.184 13.371 5.184s2.117.946 1.389 2.851c-.731 1.9-1.754 8.479-12.568 7.744-10.812-.732-18.12-6.281-19.289-7.744 0 0-1.389-1.973 0-4.312 1.392-2.342 3.218-1.9 3.218-1.9s2.768 1.096 5.4-1.389z" fill="url(#z)"/><path d="M248.614 153.046s-.729 2.48 0 4.383l32.523 2.544s1.254-2.47 0-4.589z" fill="url(#A)"/></g><g clip-path="url(#B)"><path d="M125.126 191.773c-24.414 0-44.207 19.791-44.207 44.205 0 24.416 19.793 44.208 44.207 44.208s44.205-19.792 44.205-44.208c0-24.414-19.791-44.205-44.205-44.205z" fill="url(#C)"/><path d="M125.126 200.249c-19.733 0-35.73 15.997-35.73 35.729 0 19.736 15.997 35.73 35.73 35.73 19.729 0 35.729-15.994 35.729-35.73.001-19.732-15.997-35.729-35.729-35.729z" fill="url(#D)"/><path d="M124.907 202.004c-18.646 0-33.762 15.114-33.762 33.76 0 18.641 15.113 33.754 33.762 33.754 18.643 0 33.758-15.113 33.758-33.754 0-18.646-15.115-33.76-33.758-33.76zm3.461 13.013c1.252-.397 2.271-4.409 2.539-6.947.262-2.533 1.697-3.306 2.482-3.248.787.057 5.632.812 8.007 2.97 2.375 2.152 3.489 1.797 3.489 1.797s.832-1.293 5.897 5.021c5.065 6.312-.97 7.062-.97 7.062s-15.164 7.756-16.229 8.252c-1.07.493-4.243 3.042-4.754-.479-.509-3.521-1.715-14.027-.461-14.428zm-29.693 3.645c.293-.731 2.484-5.116 5.26-6.729 2.777-1.604 2.777-2.772 2.777-2.772s-.979-1.188 6.578-4.094c7.555-2.902 6.43 3.067 6.43 3.067s2.775 16.807 2.922 17.975c.146 1.174 1.607 4.975-1.896 4.389-3.512-.582-13.889-2.631-13.889-3.944 0-1.315-3.508-3.508-5.846-4.532-2.336-1.023-2.627-2.629-2.336-3.36zm12.768 31.197c-1.249-.413-4.431 2.229-6.137 4.127s-3.325 1.671-3.926 1.163c-.604-.508-4.077-3.966-4.731-7.104-.648-3.146-1.764-3.508-1.764-3.508s-1.432.556-1.814-7.529c-.389-8.086 4.936-5.146 4.936-5.146s16.826 2.647 17.979 2.874c1.156.23 5.225.036 3.564 3.188-1.654 3.14-6.86 12.348-8.107 11.935zm25.201 15.745c-.686.385-5.142 2.435-8.312 1.943-3.17-.487-3.904.423-3.904.423s.02 1.538-7.688-.927c-7.709-2.468-3.09-6.421-3.09-6.421s8.364-14.84 8.982-15.845c.619-1.005 1.859-4.88 4.229-2.228 2.367 2.65 9.178 10.746 8.354 11.771-.825 1.023.535 4.935 1.717 7.192s.397 3.707-.288 4.092zm18.175-18.922s1.457.489-3.404 6.957c-4.87 6.464-7.081.805-7.081.805s-11.263-12.778-12.001-13.693c-.746-.914-3.998-3.361-.713-4.729 3.279-1.359 13.168-5.124 13.859-4.012.698 1.119 4.835 1.119 7.359.746 2.521-.369 3.623.837 3.765 1.612.142.771.604 5.65-.897 8.485-1.506 2.836-.887 3.829-.887 3.829z" fill="url(#r)"/><path d="M124.907 202.004c-18.646 0-33.762 15.114-33.762 33.76 0 18.641 15.113 33.754 33.762 33.754 18.643 0 33.758-15.113 33.758-33.754 0-18.646-15.115-33.76-33.758-33.76zm3.461 13.013c1.252-.397 2.271-4.409 2.539-6.947.262-2.533 1.697-3.306 2.482-3.248.787.057 5.632.812 8.007 2.97 2.375 2.152 3.489 1.797 3.489 1.797s.832-1.293 5.897 5.021c5.065 6.312-.97 7.062-.97 7.062s-15.164 7.756-16.229 8.252c-1.07.493-4.243 3.042-4.754-.479-.509-3.521-1.715-14.027-.461-14.428zm-29.693 3.645c.293-.731 2.484-5.116 5.26-6.729 2.777-1.604 2.777-2.772 2.777-2.772s-.979-1.188 6.578-4.094c7.555-2.902 6.43 3.067 6.43 3.067s2.775 16.807 2.922 17.975c.146 1.174 1.607 4.975-1.896 4.389-3.512-.582-13.889-2.631-13.889-3.944 0-1.315-3.508-3.508-5.846-4.532-2.336-1.023-2.627-2.629-2.336-3.36zm12.768 31.197c-1.249-.413-4.431 2.229-6.137 4.127s-3.325 1.671-3.926 1.163c-.604-.508-4.077-3.966-4.731-7.104-.648-3.146-1.764-3.508-1.764-3.508s-1.432.556-1.814-7.529c-.389-8.086 4.936-5.146 4.936-5.146s16.826 2.647 17.979 2.874c1.156.23 5.225.036 3.564 3.188-1.654 3.14-6.86 12.348-8.107 11.935zm25.201 15.745c-.686.385-5.142 2.435-8.312 1.943-3.17-.487-3.904.423-3.904.423s.02 1.538-7.688-.927c-7.709-2.468-3.09-6.421-3.09-6.421s8.364-14.84 8.982-15.845c.619-1.005 1.859-4.88 4.229-2.228 2.367 2.65 9.178 10.746 8.354 11.771-.825 1.023.535 4.935 1.717 7.192s.397 3.707-.288 4.092zm18.175-18.922s1.457.489-3.404 6.957c-4.87 6.464-7.081.805-7.081.805s-11.263-12.778-12.001-13.693c-.746-.914-3.998-3.361-.713-4.729 3.279-1.359 13.168-5.124 13.859-4.012.698 1.119 4.835 1.119 7.359.746 2.521-.369 3.623.837 3.765 1.612.142.771.604 5.65-.897 8.485-1.506 2.836-.887 3.829-.887 3.829z" fill="url(#r)" opacity=".7"/><path d="M121.83 203.062s1.25 18.413 2.345 20.937c0 0 2.01 1.646 1.828-1.532l-1.096-19.4c0-.005-1.913-.334-3.077-.005zm-28.806 24.914s17.818 4.805 20.562 4.586c0 0 2.209-1.366-.855-2.225l-18.703-5.271c-.004.001-.937 1.705-1.004 2.91zm15.543 35.634s10.411-15.235 11.107-17.896c0 0-.562-2.535-2.387.077l-11.143 15.918c.005-.001 1.306 1.441 2.423 1.901zm37.041-2.592s-10.939-14.856-13.223-16.396c0 0-2.58-.312-.719 2.273l11.347 15.773c.001.002 1.793-.748 2.595-1.65zm8.522-39.872s-16.609 8.048-18.535 10.008c0 0-.775 2.479 2.106 1.121L155.279 224c.001-.001-.409-1.899-1.149-2.854z" fill="#1a1a1a"/><circle cx="127.122" cy="227.442" fill="#1b1a1c" r="2.467"/><circle cx="127.123" cy="227.442" fill="url(#E)" r="1.731"/><circle cx="118.185" cy="234.274" fill="#1b1a1c" r="2.467"/><circle cx="118.184" cy="234.274" fill="url(#F)" r="1.732"/><circle cx="124.908" cy="243.287" fill="#1b1a1c" r="2.468"/><circle cx="124.905" cy="243.287" fill="url(#G)" r="1.73"/><path d="M135.927 236.42a2.467 2.467 0 1 1-2.467-2.471 2.47 2.47 0 0 1 2.467 2.471z" fill="#1b1a1c"/><path d="M135.192 236.42c0 .954-.772 1.729-1.729 1.729a1.73 1.73 0 1 1 1.729-1.729z" fill="url(#H)"/><path d="M129.989 235.688a4.28 4.28 0 0 1-4.275 4.278c-2.363 0-4.278-1.919-4.278-4.278s1.915-4.276 4.278-4.276a4.273 4.273 0 0 1 4.275 4.276z" fill="#151515"/><path d="M129.589 235.688a3.875 3.875 0 0 1-3.879 3.878c-2.146 0-3.88-1.732-3.88-3.878s1.733-3.88 3.88-3.88a3.878 3.878 0 0 1 3.879 3.88z" fill="url(#I)"/></g><g clip-path="url(#J)"><path d="M496.801 191.773c-24.415 0-44.206 19.791-44.206 44.205 0 24.416 19.791 44.208 44.206 44.208s44.207-19.792 44.207-44.208c0-24.414-19.792-44.205-44.207-44.205z" fill="url(#K)"/><path d="M496.801 200.249c-19.734 0-35.729 15.997-35.729 35.729 0 19.736 15.995 35.73 35.729 35.73 19.729 0 35.729-15.994 35.729-35.73 0-19.732-15.999-35.729-35.729-35.729z" fill="url(#L)"/><path d="M496.582 202.004c-18.646 0-33.762 15.114-33.762 33.76 0 18.641 15.113 33.754 33.761 33.754 18.645 0 33.759-15.113 33.759-33.754 0-18.646-15.114-33.76-33.758-33.76zm3.462 13.013c1.25-.397 2.271-4.409 2.532-6.947.266-2.533 1.705-3.306 2.487-3.248.786.057 5.632.812 8.007 2.97 2.376 2.152 3.492 1.797 3.492 1.797s.829-1.293 5.898 5.021c5.062 6.312-.972 7.062-.972 7.062s-15.166 7.756-16.23 8.252c-1.07.493-4.243 3.042-4.755-.479-.509-3.522-1.718-14.027-.459-14.428zm-29.693 3.645c.291-.731 2.479-5.116 5.262-6.729 2.774-1.604 2.774-2.772 2.774-2.772s-.979-1.188 6.577-4.094c7.554-2.902 6.431 3.067 6.431 3.067s2.773 16.807 2.922 17.975c.148 1.174 1.606 4.975-1.898 4.389-3.508-.582-13.884-2.631-13.884-3.944 0-1.315-3.51-3.508-5.846-4.532-2.338-1.023-2.632-2.629-2.338-3.36zm12.764 31.197c-1.247-.413-4.43 2.229-6.136 4.127-1.707 1.898-3.322 1.671-3.926 1.163s-4.075-3.966-4.73-7.104c-.648-3.146-1.762-3.508-1.762-3.508s-1.434.556-1.818-7.529c-.386-8.086 4.937-5.146 4.937-5.146s16.827 2.647 17.979 2.874c1.156.23 5.227.036 3.565 3.188-1.657 3.14-6.86 12.348-8.109 11.935zm25.203 15.745c-.686.385-5.142 2.435-8.312 1.943-3.177-.487-3.906.423-3.906.423s.021 1.538-7.689-.927c-7.707-2.468-3.087-6.421-3.087-6.421s8.364-14.84 8.984-15.845c.617-1.005 1.858-4.88 4.227-2.228 2.367 2.65 9.172 10.746 8.352 11.771-.824 1.023.532 4.935 1.719 7.192 1.175 2.271.396 3.707-.288 4.092zm18.172-18.922s1.458.489-3.406 6.957c-4.865 6.464-7.078.805-7.078.805s-11.266-12.778-12.002-13.693c-.744-.914-3.997-3.361-.715-4.729 3.281-1.359 13.172-5.124 13.863-4.012.696 1.119 4.832 1.119 7.356.746 2.522-.369 3.624.837 3.765 1.612.143.771.604 5.65-.896 8.485-1.507 2.836-.887 3.829-.887 3.829z" fill="url(#M)"/><path d="M496.582 202.004c-18.646 0-33.762 15.114-33.762 33.76 0 18.641 15.113 33.754 33.761 33.754 18.645 0 33.759-15.113 33.759-33.754 0-18.646-15.114-33.76-33.758-33.76zm3.462 13.013c1.25-.397 2.271-4.409 2.532-6.947.266-2.533 1.705-3.306 2.487-3.248.786.057 5.632.812 8.007 2.97 2.376 2.152 3.492 1.797 3.492 1.797s.829-1.293 5.898 5.021c5.062 6.312-.972 7.062-.972 7.062s-15.166 7.756-16.23 8.252c-1.07.493-4.243 3.042-4.755-.479-.509-3.522-1.718-14.027-.459-14.428zm-29.693 3.645c.291-.731 2.479-5.116 5.262-6.729 2.774-1.604 2.774-2.772 2.774-2.772s-.979-1.188 6.577-4.094c7.554-2.902 6.431 3.067 6.431 3.067s2.773 16.807 2.922 17.975c.148 1.174 1.606 4.975-1.898 4.389-3.508-.582-13.884-2.631-13.884-3.944 0-1.315-3.51-3.508-5.846-4.532-2.338-1.023-2.632-2.629-2.338-3.36zm12.764 31.197c-1.247-.413-4.43 2.229-6.136 4.127-1.707 1.898-3.322 1.671-3.926 1.163s-4.075-3.966-4.73-7.104c-.648-3.146-1.762-3.508-1.762-3.508s-1.434.556-1.818-7.529c-.386-8.086 4.937-5.146 4.937-5.146s16.827 2.647 17.979 2.874c1.156.23 5.227.036 3.565 3.188-1.657 3.14-6.86 12.348-8.109 11.935zm25.203 15.745c-.686.385-5.142 2.435-8.312 1.943-3.177-.487-3.906.423-3.906.423s.021 1.538-7.689-.927c-7.707-2.468-3.087-6.421-3.087-6.421s8.364-14.84 8.984-15.845c.617-1.005 1.858-4.88 4.227-2.228 2.367 2.65 9.172 10.746 8.352 11.771-.824 1.023.532 4.935 1.719 7.192 1.175 2.271.396 3.707-.288 4.092zm18.172-18.922s1.458.489-3.406 6.957c-4.865 6.464-7.078.805-7.078.805s-11.266-12.778-12.002-13.693c-.744-.914-3.997-3.361-.715-4.729 3.281-1.359 13.172-5.124 13.863-4.012.696 1.119 4.832 1.119 7.356.746 2.522-.369 3.624.837 3.765 1.612.143.771.604 5.65-.896 8.485-1.507 2.836-.887 3.829-.887 3.829z" fill="url(#M)" opacity=".7"/><path d="M493.506 203.062s1.249 18.413 2.346 20.937c0 0 2.01 1.646 1.825-1.532l-1.095-19.4c0-.005-1.914-.334-3.076-.005zm-28.808 24.914s17.821 4.805 20.562 4.586c0 0 2.208-1.366-.858-2.225l-18.7-5.271c-.004.001-.937 1.705-1.004 2.91zm15.542 35.634s10.41-15.235 11.106-17.896c0 0-.562-2.535-2.383.077l-11.144 15.918c.004-.001 1.3 1.441 2.421 1.901zm37.041-2.592s-10.939-14.856-13.223-16.396c0 0-2.578-.312-.718 2.273l11.347 15.773c.001.002 1.792-.748 2.594-1.65zm8.523-39.872s-16.606 8.048-18.536 10.008c0 0-.771 2.479 2.107 1.121L526.951 224c0-.001-.407-1.899-1.147-2.854z" fill="#1a1a1a"/><circle cx="498.798" cy="227.442" fill="#1b1a1c" r="2.466"/><circle cx="498.796" cy="227.442" fill="url(#N)" r="1.731"/><circle cx="489.859" cy="234.274" fill="#1b1a1c" r="2.468"/><circle cx="489.859" cy="234.274" fill="url(#O)" r="1.732"/><circle cx="496.577" cy="243.287" fill="#1b1a1c" r="2.467"/><path d="M498.313 243.287a1.73 1.73 0 0 1-3.459 0 1.73 1.73 0 0 1 1.729-1.733c.949 0 1.73.777 1.73 1.733z" fill="url(#P)"/><path d="M507.602 236.42a2.469 2.469 0 1 1-4.937-.007 2.469 2.469 0 0 1 4.937.007z" fill="#1b1a1c"/><path d="M506.865 236.42c0 .954-.771 1.729-1.729 1.729s-1.734-.771-1.734-1.729a1.732 1.732 0 1 1 3.463 0z" fill="url(#Q)"/><path d="M501.658 235.688a4.28 4.28 0 0 1-4.274 4.278 4.277 4.277 0 0 1 0-8.554 4.272 4.272 0 0 1 4.274 4.276z" fill="#151515"/><path d="M501.265 235.688a3.878 3.878 0 0 1-3.881 3.878c-2.146 0-3.878-1.732-3.878-3.878s1.732-3.88 3.878-3.88a3.88 3.88 0 0 1 3.881 3.88z" fill="url(#R)"/></g><path d="M125.126 191.774c-24.414 0-44.207 19.791-44.207 44.205 0 24.416 19.793 44.208 44.207 44.208s44.205-19.792 44.205-44.208c0-24.414-19.791-44.205-44.205-44.205z" fill="url(#S)"/><path d="M125.126 200.249c-19.733 0-35.73 15.997-35.73 35.729 0 19.736 15.997 35.73 35.73 35.73 19.729 0 35.729-15.994 35.729-35.73.002-19.732-15.996-35.729-35.729-35.729z" fill="url(#T)"/><path d="M124.907 202.004c-18.646 0-33.761 15.114-33.761 33.76 0 18.641 15.113 33.754 33.761 33.754 18.643 0 33.758-15.113 33.758-33.754 0-18.646-15.115-33.76-33.758-33.76zm3.461 13.013c1.252-.398 2.271-4.409 2.539-6.947.262-2.534 1.698-3.306 2.483-3.248.787.056 5.632.812 8.007 2.969 2.375 2.153 3.489 1.797 3.489 1.797s.832-1.293 5.897 5.021c5.066 6.312-.969 7.062-.969 7.062s-15.164 7.756-16.23 8.252c-1.07.493-4.243 3.042-4.754-.479-.509-3.52-1.715-14.026-.462-14.427zm-29.693 3.645c.293-.731 2.484-5.116 5.26-6.728 2.777-1.604 2.777-2.773 2.777-2.773s-.979-1.188 6.578-4.093c7.555-2.903 6.43 3.067 6.43 3.067s2.775 16.807 2.922 17.975c.146 1.173 1.607 4.974-1.896 4.388-3.511-.582-13.888-2.631-13.888-3.944 0-1.315-3.508-3.508-5.846-4.532-2.337-1.023-2.628-2.629-2.337-3.36zm12.769 31.198c-1.249-.413-4.431 2.229-6.137 4.127s-3.325 1.674-3.926 1.163c-.604-.508-4.077-3.966-4.731-7.104-.649-3.146-1.764-3.508-1.764-3.508s-1.432.556-1.814-7.529c-.389-8.086 4.935-5.146 4.935-5.146s16.826 2.647 17.979 2.874c1.156.23 5.224.036 3.564 3.187-1.654 3.141-6.859 12.349-8.106 11.936zm25.2 15.745c-.686.388-5.142 2.434-8.312 1.943-3.17-.487-3.904.423-3.904.423s.02 1.538-7.688-.927c-7.709-2.468-3.09-6.421-3.09-6.421s8.364-14.84 8.982-15.841c.619-1.008 1.859-4.883 4.229-2.229 2.367 2.65 9.177 10.746 8.353 11.772-.825 1.022.535 4.933 1.717 7.191s.398 3.703-.287 4.089zm18.176-18.923s1.457.489-3.405 6.957c-4.87 6.464-7.081.805-7.081.805s-11.262-12.779-12.001-13.694c-.746-.914-3.998-3.361-.713-4.728 3.28-1.36 13.168-5.124 13.86-4.012.698 1.119 4.835 1.119 7.359.746 2.521-.369 3.623.837 3.765 1.612.141.771.604 5.651-.898 8.486-1.506 2.836-.886 3.828-.886 3.828z" fill="url(#U)"/><path d="M124.907 202.004c-18.646 0-33.761 15.114-33.761 33.76 0 18.641 15.113 33.754 33.761 33.754 18.643 0 33.758-15.113 33.758-33.754 0-18.646-15.115-33.76-33.758-33.76zm3.461 13.013c1.252-.398 2.271-4.409 2.539-6.947.262-2.534 1.698-3.306 2.483-3.248.787.056 5.632.812 8.007 2.969 2.375 2.153 3.489 1.797 3.489 1.797s.832-1.293 5.897 5.021c5.066 6.312-.969 7.062-.969 7.062s-15.164 7.756-16.23 8.252c-1.07.493-4.243 3.042-4.754-.479-.509-3.52-1.715-14.026-.462-14.427zm-29.693 3.645c.293-.731 2.484-5.116 5.26-6.728 2.777-1.604 2.777-2.773 2.777-2.773s-.979-1.188 6.578-4.093c7.555-2.903 6.43 3.067 6.43 3.067s2.775 16.807 2.922 17.975c.146 1.173 1.607 4.974-1.896 4.388-3.511-.582-13.888-2.631-13.888-3.944 0-1.315-3.508-3.508-5.846-4.532-2.337-1.023-2.628-2.629-2.337-3.36zm12.769 31.198c-1.249-.413-4.431 2.229-6.137 4.127s-3.325 1.674-3.926 1.163c-.604-.508-4.077-3.966-4.731-7.104-.649-3.146-1.764-3.508-1.764-3.508s-1.432.556-1.814-7.529c-.389-8.086 4.935-5.146 4.935-5.146s16.826 2.647 17.979 2.874c1.156.23 5.224.036 3.564 3.187-1.654 3.141-6.859 12.349-8.106 11.936zm25.2 15.745c-.686.388-5.142 2.434-8.312 1.943-3.17-.487-3.904.423-3.904.423s.02 1.538-7.688-.927c-7.709-2.468-3.09-6.421-3.09-6.421s8.364-14.84 8.982-15.841c.619-1.008 1.859-4.883 4.229-2.229 2.367 2.65 9.177 10.746 8.353 11.772-.825 1.022.535 4.933 1.717 7.191s.398 3.703-.287 4.089zm18.176-18.923s1.457.489-3.405 6.957c-4.87 6.464-7.081.805-7.081.805s-11.262-12.779-12.001-13.694c-.746-.914-3.998-3.361-.713-4.728 3.28-1.36 13.168-5.124 13.86-4.012.698 1.119 4.835 1.119 7.359.746 2.521-.369 3.623.837 3.765 1.612.141.771.604 5.651-.898 8.486-1.506 2.836-.886 3.828-.886 3.828z" fill="url(#U)" opacity=".7"/><path d="M121.83 203.062s1.25 18.413 2.345 20.936c0 0 2.01 1.646 1.828-1.532l-1.096-19.4c0-.004-1.913-.332-3.077-.004zm-28.805 24.914s17.818 4.805 20.562 4.586c0 0 2.209-1.366-.855-2.225l-18.703-5.271c-.004.002-.938 1.705-1.004 2.91zm15.543 35.635s10.411-15.236 11.107-17.896c0 0-.562-2.535-2.387.077l-11.142 15.918c.004-.002 1.304 1.441 2.422 1.901zm37.041-2.593s-10.94-14.857-13.223-16.396c0 0-2.58-.311-.719 2.274l11.347 15.773c0 .001 1.792-.749 2.595-1.651zm8.521-39.871s-16.609 8.048-18.535 10.008c0 0-.775 2.479 2.106 1.121L155.28 224c.001-.001-.41-1.899-1.15-2.853z" fill="#1a1a1a"/><circle cx="127.122" cy="227.443" fill="#1b1a1c" r="2.467"/><circle cx="127.123" cy="227.443" fill="url(#V)" r="1.731"/><circle cx="118.185" cy="234.275" fill="#1b1a1c" r="2.467"/><circle cx="118.184" cy="234.275" fill="url(#W)" r="1.732"/><circle cx="124.908" cy="243.287" fill="#1b1a1c" r="2.468"/><circle cx="124.906" cy="243.287" fill="url(#X)" r="1.73"/><path d="M135.927 236.42a2.467 2.467 0 1 1-2.467-2.471 2.47 2.47 0 0 1 2.467 2.471z" fill="#1b1a1c"/><path d="M135.193 236.42a1.73 1.73 0 1 1-3.46 0 1.73 1.73 0 1 1 3.46 0z" fill="url(#Y)"/><path d="M129.99 235.689c0 2.359-1.916 4.278-4.279 4.278s-4.278-1.919-4.278-4.278a4.279 4.279 0 0 1 8.557 0z" fill="#151515"/><path d="M129.589 235.689a3.876 3.876 0 0 1-3.879 3.878 3.875 3.875 0 0 1-3.88-3.878 3.876 3.876 0 0 1 3.88-3.88 3.877 3.877 0 0 1 3.879 3.88z" fill="url(#Z)"/><path d="M496.801 191.774c-24.415 0-44.206 19.791-44.206 44.205 0 24.416 19.791 44.208 44.206 44.208s44.207-19.792 44.207-44.208c0-24.414-19.792-44.205-44.207-44.205z" fill="url(#aa)"/><path d="M496.801 200.249c-19.734 0-35.729 15.997-35.729 35.729 0 19.736 15.995 35.73 35.729 35.73 19.729 0 35.729-15.994 35.729-35.73.001-19.732-15.999-35.729-35.729-35.729z" fill="url(#ab)"/><path d="M496.582 202.004c-18.646 0-33.761 15.114-33.761 33.76 0 18.641 15.113 33.754 33.761 33.754 18.644 0 33.758-15.113 33.758-33.754 0-18.646-15.114-33.76-33.758-33.76zm3.462 13.013c1.25-.398 2.271-4.409 2.533-6.947.265-2.534 1.705-3.306 2.487-3.248.786.056 5.632.812 8.007 2.969 2.376 2.153 3.492 1.797 3.492 1.797s.829-1.293 5.898 5.021c5.062 6.312-.971 7.062-.971 7.062s-15.166 7.756-16.231 8.252c-1.07.493-4.243 3.042-4.755-.479-.509-3.521-1.718-14.026-.46-14.427zm-29.693 3.645c.291-.731 2.479-5.116 5.262-6.728 2.774-1.604 2.774-2.773 2.774-2.773s-.979-1.188 6.577-4.093c7.554-2.903 6.431 3.067 6.431 3.067s2.773 16.807 2.922 17.975c.148 1.173 1.606 4.974-1.898 4.388-3.508-.582-13.884-2.631-13.884-3.944 0-1.315-3.51-3.508-5.846-4.532-2.338-1.023-2.632-2.629-2.338-3.36zm12.764 31.198c-1.247-.413-4.43 2.229-6.136 4.127-1.707 1.898-3.322 1.674-3.926 1.163-.604-.508-4.075-3.966-4.73-7.104-.649-3.146-1.762-3.508-1.762-3.508s-1.434.556-1.818-7.529c-.386-8.086 4.936-5.146 4.936-5.146s16.827 2.647 17.98 2.874c1.156.23 5.226.036 3.565 3.187-1.656 3.141-6.859 12.349-8.109 11.936zm25.204 15.745c-.686.388-5.142 2.434-8.312 1.943-3.173-.487-3.906.423-3.906.423s.021 1.538-7.689-.927c-7.707-2.468-3.087-6.421-3.087-6.421s8.364-14.84 8.984-15.841c.617-1.008 1.857-4.883 4.227-2.229 2.367 2.65 9.172 10.746 8.351 11.772-.824 1.022.536 4.933 1.719 7.191 1.175 2.267.396 3.703-.287 4.089zm18.172-18.923s1.458.489-3.407 6.957c-4.865 6.464-7.078.805-7.078.805s-11.265-12.779-12.002-13.694c-.744-.914-3.997-3.361-.715-4.728 3.282-1.36 13.172-5.124 13.864-4.012.696 1.119 4.832 1.119 7.356.746 2.523-.369 3.624.837 3.765 1.612.142.771.604 5.651-.897 8.486-1.506 2.836-.886 3.828-.886 3.828z" fill="url(#ac)"/><path d="M496.582 202.004c-18.646 0-33.761 15.114-33.761 33.76 0 18.641 15.113 33.754 33.761 33.754 18.644 0 33.758-15.113 33.758-33.754 0-18.646-15.114-33.76-33.758-33.76zm3.462 13.013c1.25-.398 2.271-4.409 2.533-6.947.265-2.534 1.705-3.306 2.487-3.248.786.056 5.632.812 8.007 2.969 2.376 2.153 3.492 1.797 3.492 1.797s.829-1.293 5.898 5.021c5.062 6.312-.971 7.062-.971 7.062s-15.166 7.756-16.231 8.252c-1.07.493-4.243 3.042-4.755-.479-.509-3.521-1.718-14.026-.46-14.427zm-29.693 3.645c.291-.731 2.479-5.116 5.262-6.728 2.774-1.604 2.774-2.773 2.774-2.773s-.979-1.188 6.577-4.093c7.554-2.903 6.431 3.067 6.431 3.067s2.773 16.807 2.922 17.975c.148 1.173 1.606 4.974-1.898 4.388-3.508-.582-13.884-2.631-13.884-3.944 0-1.315-3.51-3.508-5.846-4.532-2.338-1.023-2.632-2.629-2.338-3.36zm12.764 31.198c-1.247-.413-4.43 2.229-6.136 4.127-1.707 1.898-3.322 1.674-3.926 1.163-.604-.508-4.075-3.966-4.73-7.104-.649-3.146-1.762-3.508-1.762-3.508s-1.434.556-1.818-7.529c-.386-8.086 4.936-5.146 4.936-5.146s16.827 2.647 17.98 2.874c1.156.23 5.226.036 3.565 3.187-1.656 3.141-6.859 12.349-8.109 11.936zm25.204 15.745c-.686.388-5.142 2.434-8.312 1.943-3.173-.487-3.906.423-3.906.423s.021 1.538-7.689-.927c-7.707-2.468-3.087-6.421-3.087-6.421s8.364-14.84 8.984-15.841c.617-1.008 1.857-4.883 4.227-2.229 2.367 2.65 9.172 10.746 8.351 11.772-.824 1.022.536 4.933 1.719 7.191 1.175 2.267.396 3.703-.287 4.089zm18.172-18.923s1.458.489-3.407 6.957c-4.865 6.464-7.078.805-7.078.805s-11.265-12.779-12.002-13.694c-.744-.914-3.997-3.361-.715-4.728 3.282-1.36 13.172-5.124 13.864-4.012.696 1.119 4.832 1.119 7.356.746 2.523-.369 3.624.837 3.765 1.612.142.771.604 5.651-.897 8.486-1.506 2.836-.886 3.828-.886 3.828z" fill="url(#ac)" opacity=".7"/><path d="M493.506 203.062s1.249 18.413 2.346 20.936c0 0 2.01 1.646 1.825-1.532l-1.095-19.4c0-.004-1.914-.332-3.076-.004zm-28.808 24.914s17.821 4.805 20.562 4.586c0 0 2.208-1.366-.858-2.225l-18.7-5.271c-.004.002-.937 1.705-1.004 2.91zm15.542 35.635s10.41-15.236 11.106-17.896c0 0-.562-2.535-2.383.077L477.82 261.71c.003-.002 1.3 1.441 2.42 1.901zm37.041-2.593s-10.94-14.857-13.223-16.396c0 0-2.578-.311-.718 2.274l11.347 15.773c.001.001 1.792-.749 2.594-1.651zm8.523-39.871s-16.606 8.048-18.536 10.008c0 0-.771 2.479 2.107 1.121L526.952 224c0-.001-.408-1.899-1.148-2.853z" fill="#1a1a1a"/><circle cx="498.799" cy="227.443" fill="#1b1a1c" r="2.466"/><circle cx="498.796" cy="227.443" fill="url(#ad)" r="1.731"/><circle cx="489.859" cy="234.275" fill="#1b1a1c" r="2.468"/><circle cx="489.859" cy="234.275" fill="url(#ae)" r="1.732"/><circle cx="496.578" cy="243.287" fill="#1b1a1c" r="2.467"/><path d="M498.314 243.287a1.73 1.73 0 0 1-3.459 0 1.73 1.73 0 0 1 1.73-1.733c.948 0 1.729.777 1.729 1.733z" fill="url(#af)"/><path d="M507.602 236.42a2.468 2.468 0 1 1-4.936-.006 2.468 2.468 0 0 1 4.936.006z" fill="#1b1a1c"/><path d="M506.865 236.42c0 .954-.771 1.729-1.729 1.729a1.73 1.73 0 1 1 0-3.462c.957 0 1.729.773 1.729 1.733z" fill="url(#ag)"/><path d="M501.659 235.689a4.28 4.28 0 0 1-4.275 4.278 4.277 4.277 0 1 1 0-8.555 4.273 4.273 0 0 1 4.275 4.277z" fill="#151515"/><path d="M501.265 235.689a3.878 3.878 0 0 1-3.881 3.878 3.874 3.874 0 0 1-3.878-3.878 3.88 3.88 0 1 1 7.759 0z" fill="url(#ah)"/><path d="M125.126 191.774c-24.414 0-44.207 19.791-44.207 44.205 0 24.416 19.793 44.208 44.207 44.208s44.205-19.792 44.205-44.208c0-24.414-19.791-44.205-44.205-44.205z" fill="url(#ai)"/><path d="M125.126 200.249c-19.733 0-35.73 15.997-35.73 35.729 0 19.736 15.997 35.73 35.73 35.73 19.731 0 35.729-15.994 35.729-35.73.002-19.732-15.996-35.729-35.729-35.729z" fill="url(#aj)"/><path d="M124.907 202.004c-18.646 0-33.759 15.114-33.759 33.76 0 18.641 15.113 33.754 33.759 33.754 18.643 0 33.758-15.113 33.758-33.754 0-18.646-15.115-33.76-33.758-33.76zm3.461 13.013c1.252-.4 2.273-4.409 2.539-6.947.262-2.536 1.7-3.306 2.485-3.248.787.054 5.632.81 8.007 2.967 2.375 2.155 3.489 1.797 3.489 1.797s.832-1.293 5.897 5.021c5.068 6.312-.967 7.061-.967 7.061s-15.164 7.756-16.232 8.252c-1.07.493-4.243 3.042-4.754-.477s-1.717-14.025-.464-14.426zm-29.693 3.645c.293-.731 2.484-5.116 5.26-6.726 2.777-1.606 2.777-2.775 2.777-2.775s-.978-1.187 6.578-4.091c7.555-2.905 6.43 3.067 6.43 3.067s2.775 16.807 2.922 17.975c.146 1.171 1.607 4.972-1.897 4.386-3.509-.582-13.886-2.631-13.886-3.944 0-1.315-3.508-3.508-5.846-4.532-2.338-1.023-2.629-2.629-2.338-3.36zm12.769 31.198c-1.249-.413-4.431 2.229-6.137 4.127s-3.325 1.672-3.926 1.163c-.604-.508-4.077-3.966-4.731-7.105-.651-3.144-1.764-3.508-1.764-3.508s-1.432.556-1.814-7.529c-.389-8.086 4.933-5.145 4.933-5.145s16.826 2.647 17.981 2.874c1.156.23 5.222.036 3.564 3.185-1.654 3.143-6.859 12.351-8.106 11.938zm25.2 15.745c-.686.386-5.142 2.432-8.312 1.943-3.17-.487-3.904.423-3.904.423s.02 1.538-7.688-.927c-7.709-2.468-3.09-6.421-3.09-6.421s8.364-14.84 8.982-15.841c.619-1.006 1.859-4.881 4.229-2.229 2.367 2.65 9.175 10.746 8.351 11.772-.825 1.024.535 4.933 1.717 7.193s.4 3.701-.285 4.087zm18.176-18.923s1.457.489-3.407 6.957c-4.87 6.464-7.081.805-7.081.805s-11.26-12.781-12.001-13.696c-.746-.914-3.998-3.361-.713-4.726 3.282-1.362 13.168-5.124 13.862-4.012.698 1.119 4.835 1.119 7.359.746 2.522-.369 3.623.837 3.765 1.612.139.772.604 5.653-.9 8.488-1.504 2.834-.884 3.826-.884 3.826z" fill="url(#ak)"/><path d="M124.907 202.004c-18.646 0-33.759 15.114-33.759 33.76 0 18.641 15.113 33.754 33.759 33.754 18.643 0 33.758-15.113 33.758-33.754 0-18.646-15.115-33.76-33.758-33.76zm3.461 13.013c1.252-.4 2.273-4.409 2.539-6.947.262-2.536 1.7-3.306 2.485-3.248.787.054 5.632.81 8.007 2.967 2.375 2.155 3.489 1.797 3.489 1.797s.832-1.293 5.897 5.021c5.068 6.312-.967 7.061-.967 7.061s-15.164 7.756-16.232 8.252c-1.07.493-4.243 3.042-4.754-.477s-1.717-14.025-.464-14.426zm-29.693 3.645c.293-.731 2.484-5.116 5.26-6.726 2.777-1.606 2.777-2.775 2.777-2.775s-.978-1.187 6.578-4.091c7.555-2.905 6.43 3.067 6.43 3.067s2.775 16.807 2.922 17.975c.146 1.171 1.607 4.972-1.897 4.386-3.509-.582-13.886-2.631-13.886-3.944 0-1.315-3.508-3.508-5.846-4.532-2.338-1.023-2.629-2.629-2.338-3.36zm12.769 31.198c-1.249-.413-4.431 2.229-6.137 4.127s-3.325 1.672-3.926 1.163c-.604-.508-4.077-3.966-4.731-7.105-.651-3.144-1.764-3.508-1.764-3.508s-1.432.556-1.814-7.529c-.389-8.086 4.933-5.145 4.933-5.145s16.826 2.647 17.981 2.874c1.156.23 5.222.036 3.564 3.185-1.654 3.143-6.859 12.351-8.106 11.938zm25.2 15.745c-.686.386-5.142 2.432-8.312 1.943-3.17-.487-3.904.423-3.904.423s.02 1.538-7.688-.927c-7.709-2.468-3.09-6.421-3.09-6.421s8.364-14.84 8.982-15.841c.619-1.006 1.859-4.881 4.229-2.229 2.367 2.65 9.175 10.746 8.351 11.772-.825 1.024.535 4.933 1.717 7.193s.4 3.701-.285 4.087zm18.176-18.923s1.457.489-3.407 6.957c-4.87 6.464-7.081.805-7.081.805s-11.26-12.781-12.001-13.696c-.746-.914-3.998-3.361-.713-4.726 3.282-1.362 13.168-5.124 13.862-4.012.698 1.119 4.835 1.119 7.359.746 2.522-.369 3.623.837 3.765 1.612.139.772.604 5.653-.9 8.488-1.504 2.834-.884 3.826-.884 3.826z" fill="url(#ak)" opacity=".7"/><path d="M121.83 203.062s1.25 18.413 2.345 20.934c0 0 2.01 1.646 1.828-1.532l-1.096-19.4c0-.002-1.913-.33-3.077-.002zm-28.805 24.914s17.818 4.805 20.56 4.586c0 0 2.209-1.366-.855-2.225l-18.703-5.271c-.002.002-.936 1.705-1.002 2.91zm15.543 35.635s10.411-15.238 11.107-17.896c0 0-.562-2.535-2.387.077l-11.14 15.918c.002-.002 1.302 1.441 2.42 1.901zm37.041-2.593s-10.942-14.859-13.223-16.397c0 0-2.58-.309-.719 2.276l11.347 15.773s1.792-.75 2.595-1.652zm8.521-39.871s-16.609 8.048-18.535 10.008c0 0-.775 2.479 2.106 1.121L155.28 224c.001-.001-.41-1.899-1.15-2.853z" fill="#1a1a1a"/><circle cx="127.122" cy="227.443" fill="#1b1a1c" r="2.467"/><circle cx="127.123" cy="227.443" fill="url(#al)" r="1.731"/><circle cx="118.185" cy="234.275" fill="#1b1a1c" r="2.467"/><circle cx="118.184" cy="234.275" fill="url(#am)" r="1.732"/><circle cx="124.908" cy="243.287" fill="#1b1a1c" r="2.468"/><circle cx="124.906" cy="243.287" fill="url(#an)" r="1.73"/><path d="M135.927 236.42a2.467 2.467 0 1 1-4.934-.004 2.467 2.467 0 0 1 4.934.004z" fill="#1b1a1c"/><path d="M135.193 236.42a1.73 1.73 0 1 1-3.461-.003 1.73 1.73 0 0 1 3.461.003z" fill="url(#ao)"/><path d="M129.99 235.689c0 2.359-1.916 4.278-4.279 4.278s-4.278-1.919-4.278-4.278a4.28 4.28 0 0 1 8.557 0z" fill="#151515"/><path d="M129.589 235.689a3.877 3.877 0 0 1-3.879 3.878 3.877 3.877 0 0 1-3.88-3.878 3.877 3.877 0 0 1 3.88-3.88 3.877 3.877 0 0 1 3.879 3.88z" fill="url(#ap)"/><path d="M496.801 191.774c-24.415 0-44.206 19.791-44.206 44.205 0 24.416 19.791 44.208 44.206 44.208s44.207-19.792 44.207-44.208c0-24.414-19.792-44.205-44.207-44.205z" fill="url(#aq)"/><path d="M496.801 200.249c-19.734 0-35.729 15.997-35.729 35.729 0 19.736 15.995 35.73 35.729 35.73 19.729 0 35.729-15.994 35.729-35.73.001-19.732-15.999-35.729-35.729-35.729z" fill="url(#ar)"/><path d="M496.582 202.004c-18.646 0-33.759 15.114-33.759 33.76 0 18.641 15.113 33.754 33.759 33.754 18.644 0 33.758-15.113 33.758-33.754 0-18.646-15.114-33.76-33.758-33.76zm3.462 13.013c1.25-.4 2.271-4.409 2.535-6.947.263-2.536 1.705-3.306 2.487-3.248.786.054 5.632.81 8.007 2.967 2.376 2.155 3.492 1.797 3.492 1.797s.829-1.293 5.898 5.021c5.062 6.312-.969 7.061-.969 7.061s-15.166 7.756-16.233 8.252c-1.07.493-4.243 3.042-4.755-.477-.509-3.52-1.718-14.025-.462-14.426zm-29.693 3.645c.291-.731 2.48-5.116 5.262-6.726 2.774-1.606 2.774-2.775 2.774-2.775s-.978-1.187 6.577-4.091c7.554-2.905 6.431 3.067 6.431 3.067s2.773 16.807 2.922 17.975c.148 1.171 1.606 4.972-1.898 4.386-3.508-.582-13.884-2.631-13.884-3.944 0-1.315-3.51-3.508-5.846-4.532-2.338-1.023-2.632-2.629-2.338-3.36zm12.764 31.198c-1.247-.413-4.43 2.229-6.136 4.127-1.707 1.898-3.322 1.672-3.926 1.163-.603-.508-4.075-3.966-4.73-7.105-.651-3.144-1.762-3.508-1.762-3.508s-1.434.556-1.818-7.529c-.386-8.086 4.934-5.145 4.934-5.145s16.827 2.647 17.982 2.874c1.156.23 5.224.036 3.565 3.185-1.656 3.143-6.859 12.351-8.109 11.938zm25.204 15.745c-.686.386-5.142 2.432-8.312 1.943-3.173-.487-3.906.423-3.906.423s.021 1.538-7.689-.927c-7.707-2.468-3.087-6.421-3.087-6.421s8.364-14.84 8.984-15.841c.617-1.006 1.857-4.881 4.227-2.229 2.367 2.65 9.172 10.746 8.349 11.772-.824 1.024.536 4.933 1.719 7.193 1.177 2.265.398 3.701-.285 4.087zm18.174-18.923s1.458.489-3.408 6.957c-4.866 6.464-7.079.805-7.079.805s-11.263-12.781-12.002-13.696c-.744-.914-3.997-3.361-.713-4.726 3.282-1.362 13.17-5.124 13.864-4.012.696 1.119 4.832 1.119 7.356.746 2.525-.369 3.624.837 3.765 1.612.14.772.604 5.653-.899 8.488-1.504 2.834-.884 3.826-.884 3.826z" fill="url(#as)"/><path d="M496.582 202.004c-18.646 0-33.759 15.114-33.759 33.76 0 18.641 15.113 33.754 33.759 33.754 18.644 0 33.758-15.113 33.758-33.754 0-18.646-15.114-33.76-33.758-33.76zm3.462 13.013c1.25-.4 2.271-4.409 2.535-6.947.263-2.536 1.705-3.306 2.487-3.248.786.054 5.632.81 8.007 2.967 2.376 2.155 3.492 1.797 3.492 1.797s.829-1.293 5.898 5.021c5.062 6.312-.969 7.061-.969 7.061s-15.166 7.756-16.233 8.252c-1.07.493-4.243 3.042-4.755-.477-.509-3.52-1.718-14.025-.462-14.426zm-29.693 3.645c.291-.731 2.48-5.116 5.262-6.726 2.774-1.606 2.774-2.775 2.774-2.775s-.978-1.187 6.577-4.091c7.554-2.905 6.431 3.067 6.431 3.067s2.773 16.807 2.922 17.975c.148 1.171 1.606 4.972-1.898 4.386-3.508-.582-13.884-2.631-13.884-3.944 0-1.315-3.51-3.508-5.846-4.532-2.338-1.023-2.632-2.629-2.338-3.36zm12.764 31.198c-1.247-.413-4.43 2.229-6.136 4.127-1.707 1.898-3.322 1.672-3.926 1.163-.603-.508-4.075-3.966-4.73-7.105-.651-3.144-1.762-3.508-1.762-3.508s-1.434.556-1.818-7.529c-.386-8.086 4.934-5.145 4.934-5.145s16.827 2.647 17.982 2.874c1.156.23 5.224.036 3.565 3.185-1.656 3.143-6.859 12.351-8.109 11.938zm25.204 15.745c-.686.386-5.142 2.432-8.312 1.943-3.173-.487-3.906.423-3.906.423s.021 1.538-7.689-.927c-7.707-2.468-3.087-6.421-3.087-6.421s8.364-14.84 8.984-15.841c.617-1.006 1.857-4.881 4.227-2.229 2.367 2.65 9.172 10.746 8.349 11.772-.824 1.024.536 4.933 1.719 7.193 1.177 2.265.398 3.701-.285 4.087zm18.174-18.923s1.458.489-3.408 6.957c-4.866 6.464-7.079.805-7.079.805s-11.263-12.781-12.002-13.696c-.744-.914-3.997-3.361-.713-4.726 3.282-1.362 13.17-5.124 13.864-4.012.696 1.119 4.832 1.119 7.356.746 2.525-.369 3.624.837 3.765 1.612.14.772.604 5.653-.899 8.488-1.504 2.834-.884 3.826-.884 3.826z" fill="url(#as)" opacity=".7"/><path d="M493.506 203.062s1.249 18.413 2.346 20.934c0 0 2.01 1.646 1.825-1.532l-1.095-19.4c0-.002-1.914-.33-3.076-.002zm-28.808 24.914s17.821 4.805 20.561 4.586c0 0 2.208-1.366-.858-2.225l-18.7-5.271c-.003.002-.936 1.705-1.003 2.91zm15.543 35.635s10.41-15.238 11.106-17.896c0 0-.562-2.535-2.383.077l-11.141 15.918c.002-.002 1.299 1.441 2.418 1.901zm37.04-2.593s-10.942-14.859-13.223-16.397c0 0-2.578-.309-.718 2.276l11.347 15.773c.001 0 1.792-.75 2.594-1.652zm8.523-39.871s-16.606 8.048-18.536 10.008c0 0-.771 2.479 2.107 1.121L526.954 224c0-.001-.41-1.899-1.15-2.853z" fill="#1a1a1a"/><circle cx="498.799" cy="227.443" fill="#1b1a1c" r="2.466"/><circle cx="498.796" cy="227.443" fill="url(#at)" r="1.731"/><circle cx="489.859" cy="234.275" fill="#1b1a1c" r="2.468"/><circle cx="489.859" cy="234.275" fill="url(#au)" r="1.732"/><circle cx="496.58" cy="243.287" fill="#1b1a1c" r="2.467"/><path d="M498.314 243.287a1.731 1.731 0 1 1-3.462 0 1.731 1.731 0 0 1 3.462 0z" fill="url(#av)"/><path d="M507.602 236.42a2.468 2.468 0 1 1-2.465-2.471 2.47 2.47 0 0 1 2.465 2.471z" fill="#1b1a1c"/><path d="M506.865 236.42a1.732 1.732 0 1 1-1.729-1.733c.957 0 1.729.773 1.729 1.733z" fill="url(#aw)"/><path d="M501.661 235.689a4.28 4.28 0 0 1-4.277 4.278 4.279 4.279 0 0 1 0-8.557 4.276 4.276 0 0 1 4.277 4.279z" fill="#151515"/><path d="M501.265 235.689a3.88 3.88 0 1 1-7.76-.003 3.88 3.88 0 0 1 7.76.003z" fill="url(#ax)"/></g><g fill="#fff"><path d="M493.256 132.928l2.483 1.005-.061 5.907-2.422-.762v-6.15zm4.897 1.982l2.517.89v6.147l-2.517-.888v-6.149zm4.987 1.755l2.623.802v6.15l-2.624-.803v-6.149zm5.232 1.511l2.644 1.103-.05 5.798-2.594-.752v-6.149zm5.054 1.557l2.309.774.165 5.788-2.474-.413v-6.149z"/><path d="M528.34 149.419c0 3.028-12.751 1.21-22.037-1.683-9.285-2.895-17.272-5.217-18.874-7.743-1.602-2.526 7.822 3.512 22.716 6.746 14.894 3.234 18.196-.348 18.196 2.68zm-59.698-25.658l13.167 3.93 2.817 5.43-14.206-5.95-1.778-3.41z"/></g><g transform="scale(.995 .9984)"><path d="M68.979 159.61c-24.414 0-44.207 19.791-44.207 44.205 0 24.416 19.793 44.208 44.207 44.208s44.205-19.792 44.205-44.208c0-24.414-19.791-44.205-44.205-44.205z" fill="url(#ay)"/><path d="M68.979 168.086c-19.733 0-35.73 15.997-35.73 35.729 0 19.736 15.997 35.73 35.73 35.73 19.732 0 35.73-15.994 35.73-35.73.001-19.732-15.997-35.729-35.73-35.729z" fill="url(#az)"/><path d="M68.76 169.841c-18.645 0-33.758 15.114-33.758 33.76 0 18.641 15.113 33.754 33.758 33.754 18.643 0 33.758-15.113 33.758-33.754 0-18.646-15.115-33.76-33.758-33.76zm3.461 13.013c1.252-.401 2.274-4.409 2.539-6.947.262-2.537 1.701-3.306 2.486-3.248.787.053 5.632.809 8.007 2.966 2.375 2.156 3.489 1.797 3.489 1.797s.832-1.293 5.897 5.021c5.069 6.311-.966 7.06-.966 7.06s-15.164 7.756-16.233 8.252c-1.07.493-4.243 3.042-4.754-.476-.51-3.519-1.718-14.024-.465-14.425zm-29.693 3.645c.293-.731 2.484-5.116 5.26-6.725 2.777-1.607 2.777-2.776 2.777-2.776s-.977-1.186 6.578-4.09c7.555-2.906 6.43 3.067 6.43 3.067s2.775 16.807 2.922 17.975c.146 1.17 1.607 4.971-1.898 4.385-3.508-.582-13.885-2.631-13.885-3.944 0-1.315-3.508-3.508-5.846-4.532-2.338-1.023-2.629-2.629-2.338-3.36zm12.769 31.198c-1.249-.413-4.431 2.229-6.137 4.127-1.706 1.898-3.325 1.671-3.926 1.163-.603-.508-4.077-3.966-4.731-7.106-.652-3.143-1.764-3.508-1.764-3.508s-1.432.556-1.814-7.529c-.389-8.086 4.932-5.144 4.932-5.144s16.826 2.647 17.982 2.874c1.156.23 5.221.036 3.564 3.184-1.654 3.144-6.859 12.352-8.106 11.939zm25.2 15.745c-.686.385-5.142 2.431-8.312 1.943-3.17-.487-3.904.423-3.904.423s.02 1.538-7.688-.927c-7.709-2.468-3.09-6.421-3.09-6.421s8.364-14.84 8.982-15.841c.619-1.005 1.859-4.88 4.229-2.228 2.367 2.65 9.174 10.746 8.35 11.772-.825 1.025.535 4.933 1.717 7.194s.401 3.699-.284 4.085zm18.176-18.923s1.457.489-3.408 6.957c-4.87 6.464-7.081.805-7.081.805s-11.259-12.782-12.001-13.697c-.746-.914-3.998-3.361-.713-4.725 3.283-1.363 13.168-5.124 13.863-4.012.698 1.119 4.835 1.119 7.359.746 2.523-.369 3.623.837 3.765 1.612.138.773.603 5.654-.901 8.489-1.503 2.833-.883 3.825-.883 3.825z" fill="url(#aA)"/><path d="M68.76 169.841c-18.645 0-33.758 15.114-33.758 33.76 0 18.641 15.113 33.754 33.758 33.754 18.643 0 33.758-15.113 33.758-33.754 0-18.646-15.115-33.76-33.758-33.76zm3.461 13.013c1.252-.401 2.274-4.409 2.539-6.947.262-2.537 1.701-3.306 2.486-3.248.787.053 5.632.809 8.007 2.966 2.375 2.156 3.489 1.797 3.489 1.797s.832-1.293 5.897 5.021c5.069 6.311-.966 7.06-.966 7.06s-15.164 7.756-16.233 8.252c-1.07.493-4.243 3.042-4.754-.476-.51-3.519-1.718-14.024-.465-14.425zm-29.693 3.645c.293-.731 2.484-5.116 5.26-6.725 2.777-1.607 2.777-2.776 2.777-2.776s-.977-1.186 6.578-4.09c7.555-2.906 6.43 3.067 6.43 3.067s2.775 16.807 2.922 17.975c.146 1.17 1.607 4.971-1.898 4.385-3.508-.582-13.885-2.631-13.885-3.944 0-1.315-3.508-3.508-5.846-4.532-2.338-1.023-2.629-2.629-2.338-3.36zm12.769 31.198c-1.249-.413-4.431 2.229-6.137 4.127-1.706 1.898-3.325 1.671-3.926 1.163-.603-.508-4.077-3.966-4.731-7.106-.652-3.143-1.764-3.508-1.764-3.508s-1.432.556-1.814-7.529c-.389-8.086 4.932-5.144 4.932-5.144s16.826 2.647 17.982 2.874c1.156.23 5.221.036 3.564 3.184-1.654 3.144-6.859 12.352-8.106 11.939zm25.2 15.745c-.686.385-5.142 2.431-8.312 1.943-3.17-.487-3.904.423-3.904.423s.02 1.538-7.688-.927c-7.709-2.468-3.09-6.421-3.09-6.421s8.364-14.84 8.982-15.841c.619-1.005 1.859-4.88 4.229-2.228 2.367 2.65 9.174 10.746 8.35 11.772-.825 1.025.535 4.933 1.717 7.194s.401 3.699-.284 4.085zm18.176-18.923s1.457.489-3.408 6.957c-4.87 6.464-7.081.805-7.081.805s-11.259-12.782-12.001-13.697c-.746-.914-3.998-3.361-.713-4.725 3.283-1.363 13.168-5.124 13.863-4.012.698 1.119 4.835 1.119 7.359.746 2.523-.369 3.623.837 3.765 1.612.138.773.603 5.654-.901 8.489-1.503 2.833-.883 3.825-.883 3.825z" fill="url(#aA)" opacity=".7"/><circle cx="70.975" cy="195.28" fill="#1b1a1c" r="2.467"/><circle cx="70.976" cy="195.28" fill="url(#aB)" r="1.731"/><circle cx="62.038" cy="202.112" fill="#1b1a1c" r="2.467"/><circle cx="62.037" cy="202.112" fill="url(#aC)" r="1.732"/><circle cx="68.761" cy="211.124" fill="#1b1a1c" r="2.468"/><circle cx="68.759" cy="211.124" fill="url(#aD)" r="1.73"/><path d="M65.683 170.899s1.25 18.413 2.345 20.933c0 0 2.01 1.646 1.828-1.532l-1.096-19.4c0-.001-1.913-.329-3.077-.001zm-28.805 24.914s17.818 4.805 20.559 4.586c0 0 2.209-1.366-.855-2.225l-18.703-5.27c-.001.001-.935 1.704-1.001 2.909zm15.543 35.635s10.411-15.239 11.107-17.897c0 0-.561-2.535-2.387.077l-11.139 15.918c.001-.001 1.301 1.442 2.419 1.902zm37.041-2.593s-10.943-14.86-13.223-16.398c0 0-2.58-.308-.719 2.277l11.347 15.773s1.792-.75 2.595-1.652zm8.521-39.871s-16.609 8.048-18.535 10.008c0 0-.775 2.479 2.106 1.121l17.579-8.276c.001-.001-.41-1.899-1.15-2.853z" fill="#1a1a1a"/><path d="M79.78 204.257a2.467 2.467 0 0 1-4.934 0 2.47 2.47 0 0 1 2.467-2.471 2.47 2.47 0 0 1 2.467 2.471z" fill="#1b1a1c"/><path d="M79.046 204.257a1.731 1.731 0 1 1-3.463-.005 1.731 1.731 0 0 1 3.463.005z" fill="url(#aE)"/><path d="M73.843 203.526a4.281 4.281 0 0 1-4.279 4.278 4.28 4.28 0 0 1 0-8.558 4.28 4.28 0 0 1 4.279 4.28z" fill="#151515"/><path d="M73.442 203.526a3.878 3.878 0 0 1-3.879 3.878 3.879 3.879 0 1 1 0-7.758 3.877 3.877 0 0 1 3.879 3.88z" fill="url(#aF)"/></g><g transform="scale(.995 .9984)"><path d="M440.317 159.565c-24.415 0-44.206 19.791-44.206 44.205 0 24.416 19.791 44.208 44.206 44.208 24.415 0 44.207-19.792 44.207-44.208 0-24.414-19.792-44.205-44.207-44.205z" fill="url(#aG)"/><path d="M439.952 169.041c-19.733 0-35.73 15.997-35.73 35.729 0 19.736 15.997 35.73 35.73 35.73 19.732 0 35.73-15.994 35.73-35.73.001-19.732-15.997-35.729-35.73-35.729z" fill="url(#aH)"/><path d="M439.733 170.796c-18.645 0-33.758 15.114-33.758 33.76 0 18.641 15.113 33.754 33.758 33.754 18.643 0 33.758-15.113 33.758-33.754 0-18.646-15.115-33.76-33.758-33.76zm3.461 13.013c1.252-.401 2.274-4.409 2.539-6.947.262-2.537 1.701-3.306 2.486-3.248.787.053 5.632.809 8.007 2.966 2.375 2.156 3.489 1.797 3.489 1.797s.832-1.293 5.897 5.021c5.069 6.311-.966 7.06-.966 7.06s-15.164 7.756-16.233 8.252c-1.07.493-4.243 3.042-4.754-.476-.51-3.519-1.718-14.024-.465-14.425zm-29.693 3.645c.293-.731 2.484-5.116 5.26-6.725 2.777-1.607 2.777-2.776 2.777-2.776s-.977-1.186 6.578-4.09c7.555-2.906 6.43 3.067 6.43 3.067s2.775 16.807 2.922 17.975c.146 1.17 1.607 4.971-1.898 4.385-3.508-.582-13.885-2.631-13.885-3.944 0-1.315-3.508-3.508-5.846-4.532-2.338-1.023-2.629-2.629-2.338-3.36zm12.769 31.198c-1.249-.413-4.431 2.229-6.137 4.127-1.706 1.898-3.325 1.671-3.926 1.163-.603-.508-4.077-3.966-4.731-7.106-.652-3.143-1.764-3.508-1.764-3.508s-1.432.556-1.814-7.529c-.389-8.086 4.932-5.144 4.932-5.144s16.826 2.647 17.982 2.874c1.156.23 5.221.036 3.564 3.184-1.654 3.144-6.859 12.352-8.106 11.939zm25.2 15.745c-.686.385-5.142 2.431-8.312 1.943-3.17-.487-3.904.423-3.904.423s.02 1.538-7.688-.927c-7.709-2.468-3.09-6.421-3.09-6.421s8.364-14.84 8.982-15.841c.619-1.005 1.859-4.88 4.229-2.228 2.367 2.65 9.174 10.746 8.35 11.772-.825 1.025.535 4.933 1.717 7.194s.401 3.699-.284 4.085zm18.176-18.923s1.457.489-3.408 6.957c-4.87 6.464-7.081.805-7.081.805s-11.259-12.782-12.001-13.697c-.746-.914-3.998-3.361-.713-4.725 3.283-1.363 13.168-5.124 13.863-4.012.698 1.119 4.835 1.119 7.359.746 2.523-.369 3.623.837 3.765 1.612.138.773.603 5.654-.901 8.489-1.503 2.833-.883 3.825-.883 3.825z" fill="url(#aI)"/><path d="M439.733 170.796c-18.645 0-33.758 15.114-33.758 33.76 0 18.641 15.113 33.754 33.758 33.754 18.643 0 33.758-15.113 33.758-33.754 0-18.646-15.115-33.76-33.758-33.76zm3.461 13.013c1.252-.401 2.274-4.409 2.539-6.947.262-2.537 1.701-3.306 2.486-3.248.787.053 5.632.809 8.007 2.966 2.375 2.156 3.489 1.797 3.489 1.797s.832-1.293 5.897 5.021c5.069 6.311-.966 7.06-.966 7.06s-15.164 7.756-16.233 8.252c-1.07.493-4.243 3.042-4.754-.476-.51-3.519-1.718-14.024-.465-14.425zm-29.693 3.645c.293-.731 2.484-5.116 5.26-6.725 2.777-1.607 2.777-2.776 2.777-2.776s-.977-1.186 6.578-4.09c7.555-2.906 6.43 3.067 6.43 3.067s2.775 16.807 2.922 17.975c.146 1.17 1.607 4.971-1.898 4.385-3.508-.582-13.885-2.631-13.885-3.944 0-1.315-3.508-3.508-5.846-4.532-2.338-1.023-2.629-2.629-2.338-3.36zm12.769 31.198c-1.249-.413-4.431 2.229-6.137 4.127-1.706 1.898-3.325 1.671-3.926 1.163-.603-.508-4.077-3.966-4.731-7.106-.652-3.143-1.764-3.508-1.764-3.508s-1.432.556-1.814-7.529c-.389-8.086 4.932-5.144 4.932-5.144s16.826 2.647 17.982 2.874c1.156.23 5.221.036 3.564 3.184-1.654 3.144-6.859 12.352-8.106 11.939zm25.2 15.745c-.686.385-5.142 2.431-8.312 1.943-3.17-.487-3.904.423-3.904.423s.02 1.538-7.688-.927c-7.709-2.468-3.09-6.421-3.09-6.421s8.364-14.84 8.982-15.841c.619-1.005 1.859-4.88 4.229-2.228 2.367 2.65 9.174 10.746 8.35 11.772-.825 1.025.535 4.933 1.717 7.194s.401 3.699-.284 4.085zm18.176-18.923s1.457.489-3.408 6.957c-4.87 6.464-7.081.805-7.081.805s-11.259-12.782-12.001-13.697c-.746-.914-3.998-3.361-.713-4.725 3.283-1.363 13.168-5.124 13.863-4.012.698 1.119 4.835 1.119 7.359.746 2.523-.369 3.623.837 3.765 1.612.138.773.603 5.654-.901 8.489-1.503 2.833-.883 3.825-.883 3.825z" opacity=".7" fill="#969696"/><circle cx="441.948" cy="196.235" fill="#1b1a1c" r="2.467"/><circle cx="441.949" cy="196.235" fill="url(#aJ)" r="1.731"/><circle cx="433.011" cy="203.067" fill="#1b1a1c" r="2.467"/><circle cx="433.01" cy="203.067" fill="url(#aK)" r="1.732"/><circle cx="439.734" cy="212.079" fill="#1b1a1c" r="2.468"/><circle cx="439.732" cy="212.079" fill="url(#aL)" r="1.73"/><path d="M436.656 171.854s1.25 18.413 2.345 20.933c0 0 2.01 1.646 1.828-1.532l-1.096-19.4c0-.001-1.913-.329-3.077-.001zm-28.805 24.914s17.818 4.805 20.559 4.586c0 0 2.209-1.366-.855-2.225l-18.703-5.27c-.001.001-.935 1.704-1.001 2.909zm15.543 35.635s10.411-15.239 11.107-17.897c0 0-.561-2.535-2.387.077l-11.139 15.918c.001-.001 1.301 1.442 2.419 1.902zm37.041-2.593s-10.943-14.86-13.223-16.398c0 0-2.58-.308-.719 2.277l11.347 15.773s1.792-.75 2.595-1.652zm8.521-39.871s-16.609 8.048-18.535 10.008c0 0-.775 2.479 2.106 1.121l17.579-8.276c.001-.001-.41-1.899-1.15-2.853z" fill="#1a1a1a"/><path d="M450.753 205.212a2.467 2.467 0 0 1-4.934 0 2.47 2.47 0 0 1 2.467-2.471 2.47 2.47 0 0 1 2.467 2.471z" fill="#1b1a1c"/><path d="M450.019 205.212a1.731 1.731 0 1 1-3.463-.005 1.731 1.731 0 0 1 3.463.005z" fill="url(#aM)"/><path d="M444.816 204.481a4.281 4.281 0 0 1-4.279 4.278 4.28 4.28 0 0 1 0-8.558 4.28 4.28 0 0 1 4.279 4.28z" fill="#151515"/><path d="M444.415 204.481a3.878 3.878 0 0 1-3.879 3.878 3.879 3.879 0 1 1 0-7.758 3.877 3.877 0 0 1 3.879 3.88z" fill="url(#aN)"/></g></svg>