<svg viewBox="0 0 1800 800" xmlns="http://www.w3.org/2000/svg"><path fill="#46bbff" d="M0 0h1800v800H0z"/><path fill="#888" d="M0 633.517h1800V800H0z"/><path fill="#fff" d="M75.294 710.421H148.8v12.676H75.294zm143.29 0h73.506v12.676h-73.506zm143.291 0h73.506v12.676h-73.506zm143.29 0h73.506v12.676h-73.506zm143.291 0h73.506v12.676h-73.506zm143.29 0h73.506v12.676h-73.506zm143.291 0h73.506v12.676h-73.506zm143.29 0h73.506v12.676h-73.506zm143.291 0h73.506v12.676h-73.506zm143.29 0h73.506v12.676h-73.506zm143.291 0h73.506v12.676h-73.506zm143.29 0h73.506v12.676h-73.506z"/></svg>